<?xml version="1.0" encoding="UTF-8"?>
<!DOCTYPE svg PUBLIC "-//W3C//DTD SVG 1.1//EN" "http://www.w3.org/Graphics/SVG/1.1/DTD/svg11.dtd">
<!-- Creator: CorelDRAW 2020 (64 Bit) -->
<svg xmlns="http://www.w3.org/2000/svg" xml:space="preserve" width="32.941mm" height="7.541mm" version="1.1" style="shape-rendering:geometricPrecision; text-rendering:geometricPrecision; image-rendering:optimizeQuality; fill-rule:evenodd; clip-rule:evenodd"
viewBox="0 0 3294.1 754.1"
 xmlns:xlink="http://www.w3.org/1999/xlink"
 xmlns:xodm="http://www.corel.com/coreldraw/odm/2003">
 <defs>
  <style type="text/css">
   <![CDATA[
    .fil0 {fill:none}
    .fil1 {fill:none;fill-rule:nonzero}
    .fil6 {fill:#FEFEFE;fill-rule:nonzero}
    .fil7 {fill:#4AB968;fill-rule:nonzero}
    .fil3 {fill:black;fill-rule:nonzero}
    .fil5 {fill:#002478;fill-rule:nonzero}
    .fil4 {fill:#009B36;fill-rule:nonzero}
    .fil2 {fill:#FFC501;fill-rule:nonzero}
   ]]>
  </style>
 </defs>
 <g id="Camada_x0020_1">
  <metadata id="CorelCorpID_0Corel-Layer"/>
  <g id="_2277477331488">
   <g id="_2312479282064">
    <rect class="fil0" x="22490.44" y="-990.21" width="3294.06" height="754.06"/>
   </g>
  </g>
  <g id="_2277230344320">
   <path class="fil1" d="M2419.13 304.51c-9.59,-70.77 -58.4,-117.53 -130.11,-123.11 -52.42,-4.07 -101.17,8.03 -138.79,45.48 -0.26,0.24 -0.68,0.08 -0.68,-0.28l0 -40.4c0,-0.32 -0.26,-0.58 -0.56,-0.58l-99.85 0c-0.58,0 -1.04,0.46 -1.04,1.04l0 360.44c0,1.08 0.88,1.96 1.96,1.96l102.76 0c0.81,0 1.47,-0.66 1.49,-1.46 0.08,-18.65 0.08,-77.45 0.02,-176.42 -0.02,-57.34 26.91,-99.12 88.49,-99.18 52.98,-0.06 72.57,37.65 72.75,85.13 0.08,23.95 0.06,83.8 -0.04,179.51"/>
   <path class="fil1" d="M2315.53 536.64l-2.77 10.18c-0.3,1.08 0.5,2.14 1.63,2.14l107.35 0c1.35,0 2.55,-0.8 3.05,-2.02l40.98 -96.58c0.73,-1.69 2.37,-2.79 4.22,-2.79l214.41 0c1.64,0 3.13,1 3.75,2.53l38.84 94.91c0.98,2.41 3.31,3.97 5.9,3.97l109.72 0c1.08,0 1.81,-1.12 1.37,-2.12l-210.56 -468.38c-0.64,-1.42 -2.05,-2.35 -3.61,-2.35l-104.63 0c-1.32,0 -2.51,0.77 -3.05,1.97 -37.51,83.63 -71.29,159.06 -101.31,226.27 -0.2,0.42 -0.76,0.48 -1.69,0.14"/>
   <path class="fil1" d="M2315.53 536.64c0.74,-0.06 1.51,-0.96 2.29,-2.73 33.46,-74.74 66.95,-149.46 100.45,-224.16 0.48,-1.1 0.76,-2.85 0.86,-5.24"/>
   <path class="fil1" d="M3000.54 78.1c0,-1.12 -0.9,-2.03 -2.03,-2.03l-102.15 0c-1.13,0 -2.03,0.91 -2.03,2.03l0 468.64c0,1.12 0.9,2.02 2.03,2.02l102.15 0c1.13,0 2.03,-0.9 2.03,-2.02l0 -468.64z"/>
   <path class="fil1" d="M294.76 487.61c1.18,16.64 -0.3,33.28 -4.48,49.89 -7,27.88 -23.88,46.47 -50.65,55.76 -9.24,3.19 -16.84,5.18 -22.82,5.92 -53.47,6.68 -114.4,-5.52 -157.79,-39.22 -0.51,-0.38 -1.23,-0.24 -1.53,0.32l-40.92 73.96c-0.54,0.98 -0.28,2.19 0.62,2.85 55.55,40.82 133.27,51.68 200.56,48.23 71.05,-3.67 134.85,-29.85 165.02,-97.22 11.42,-25.53 17.96,-59.77 18.04,-87.49 0.18,-85.76 0.2,-190.16 0.06,-313.21 0,-0.98 -0.78,-1.78 -1.77,-1.78l-98.12 0c-0.34,0 -0.62,0.28 -0.62,0.62l0 43.83c0,0.7 -0.88,1.02 -1.33,0.48 -30.64,-36.45 -73.15,-50.01 -120.92,-49.99 -98.58,0.02 -179.85,68.04 -181.99,170.07 -2.21,104.73 76,178.81 178.48,180.15 44.64,0.58 87.34,-10.34 118.98,-43.61 0.42,-0.42 1.14,-0.16 1.18,0.44z"/>
   <path class="fil1" d="M471.86 367.35c0,113.74 91.22,188.26 200.5,186.65 0.12,0 0.22,0 0.34,0 0.12,0 0.22,0 0.34,0 109.28,1.59 200.48,-72.95 200.46,-186.69 0,-113.74 -91.2,-188.26 -200.5,-186.65 -0.1,0 -0.22,0 -0.34,0 -0.1,0 -0.22,0 -0.34,0 -109.29,-1.59 -200.48,72.93 -200.46,186.69z"/>
   <path class="fil1" d="M1604.87 434.7c-18.64,17.89 -40.46,28.76 -65.45,32.66 -54.67,8.51 -114.72,-9.35 -129.63,-69.18 -0.16,-0.66 0.32,-1.31 1,-1.31l274.02 0c0.5,0 0.92,-0.36 1,-0.86 3.48,-24.39 2.67,-48.53 -2.43,-72.47 -21.95,-103.04 -112.97,-152.44 -212.7,-141.44 -105.33,11.6 -176.55,97.54 -167.38,203.05 9.05,104.12 93.66,163.83 192.89,168.61 62.14,2.97 121.71,-10.96 165.16,-57.06 0.64,-0.68 0.66,-1.74 0.02,-2.43l-55.36 -59.54c-0.3,-0.33 -0.82,-0.33 -1.14,-0.03z"/>
   <path class="fil1" d="M1860.72 231.58l0 -44.92c0,-0.58 -0.46,-1.04 -1.04,-1.04l-98.97 0.02c-0.72,0 -1.3,0.58 -1.3,1.3l0 360.4c0,0.94 0.76,1.72 1.71,1.72l102.69 0c1.07,0 1.93,-0.86 1.93,-1.92 -0.02,-94.23 -0.02,-150.05 0,-167.43 0,-36.34 9.47,-72.61 43.83,-91.08 23.14,-12.42 49.74,-13.38 75.99,-10.71 0.52,0.06 0.98,-0.36 0.98,-0.91l0 -94.93c0,-0.66 -0.54,-1.2 -1.2,-1.22 -47.71,-1.21 -93.37,13.22 -123.91,50.96 -0.25,0.3 -0.71,0.14 -0.71,-0.24z"/>
   <path class="fil1" d="M1195.22 185.64c-0.3,0 -0.58,0.18 -0.7,0.46l-103.62 244.27c-0.28,0.62 -1.17,0.62 -1.43,0l-99.91 -244.27c-0.12,-0.3 -0.4,-0.48 -0.72,-0.48l-108.2 0c-0.54,0 -0.9,0.56 -0.7,1.06l152.89 361.92c0.13,0.28 0.41,0.46 0.71,0.46l108.72 0c0.3,0 0.58,-0.18 0.7,-0.46l153.55 -361.9c0.21,-0.5 -0.16,-1.06 -0.7,-1.06l-100.59 0z"/>
   <path class="fil1" d="M2502.64 362.61c-0.4,0.99 0.32,2.07 1.39,2.07l145.91 0c1.06,0 1.78,-1.08 1.38,-2.07l-72.95 -175.47c-0.5,-1.24 -2.27,-1.24 -2.77,0l-72.96 175.47z"/>
   <path class="fil1" d="M103.85 355.49c-0.1,54.83 43.45,88.47 96.02,88.55 52.58,0.1 96.23,-33.38 96.33,-88.23 0.1,-54.85 -43.45,-88.47 -96.03,-88.55 -52.57,-0.1 -96.24,33.38 -96.32,88.23z"/>
   <path class="fil1" d="M579.33 367.27c-0.02,55.57 35.1,100.13 93.35,100.15 58.22,0.02 93.38,-44.5 93.4,-100.07 0.02,-55.57 -35.12,-100.13 -93.34,-100.15 -58.23,-0.02 -93.39,44.5 -93.41,100.07z"/>
   <path class="fil1" d="M1497.82 335.28c23.64,0 53,-0.02 88.06,-0.06 1.03,0 1.79,-0.95 1.57,-1.95 -9.89,-45.44 -42.61,-72.69 -89.63,-72.69 -47.03,0 -79.74,27.27 -89.64,72.71 -0.22,1 0.55,1.95 1.57,1.95 35.06,0.02 64.43,0.04 88.07,0.04z"/>
   <path class="fil2" d="M2315.53 536.64c0.74,-0.06 1.51,-0.96 2.29,-2.73 33.46,-74.74 66.95,-149.46 100.45,-224.16 0.48,-1.1 0.76,-2.85 0.86,-5.24 0.93,0.34 1.49,0.28 1.69,-0.14 30.02,-67.21 63.8,-142.64 101.31,-226.27 0.54,-1.2 1.73,-1.97 3.05,-1.97l104.63 0c1.56,0 2.97,0.93 3.61,2.35l210.56 468.38c0.44,1 -0.29,2.12 -1.37,2.12l-109.72 0c-2.59,0 -4.92,-1.56 -5.9,-3.97l-38.84 -94.91c-0.62,-1.53 -2.11,-2.53 -3.75,-2.53l-214.41 0c-1.85,0 -3.49,1.1 -4.22,2.79l-40.98 96.58c-0.5,1.22 -1.7,2.02 -3.05,2.02l-107.35 0c-1.13,0 -1.93,-1.06 -1.63,-2.14l2.77 -10.18zm187.11 -174.03c-0.4,0.99 0.32,2.07 1.39,2.07l145.91 0c1.06,0 1.78,-1.08 1.38,-2.07l-72.95 -175.47c-0.5,-1.24 -2.27,-1.24 -2.77,0l-72.96 175.47z"/>
   <path class="fil2" d="M3000.54 546.74c0,1.12 -0.9,2.02 -2.03,2.02l-102.15 0c-1.13,0 -2.03,-0.9 -2.03,-2.02l0 -468.64c0,-1.12 0.9,-2.03 2.03,-2.03l102.15 0c1.13,0 2.03,0.91 2.03,2.03l0 468.64z"/>
   <path class="fil3" d="M294.76 487.61c-0.04,-0.6 -0.76,-0.86 -1.18,-0.44 -31.64,33.27 -74.34,44.19 -118.98,43.61 -102.48,-1.34 -180.69,-75.42 -178.48,-180.15 2.14,-102.03 83.41,-170.05 181.99,-170.07 47.77,-0.02 90.28,13.54 120.92,49.99 0.45,0.54 1.33,0.22 1.33,-0.48l0 -43.83c0,-0.34 0.28,-0.62 0.62,-0.62l98.12 0c0.99,0 1.77,0.8 1.77,1.78 0.14,123.05 0.12,227.45 -0.06,313.21 -0.08,27.72 -6.62,61.96 -18.04,87.49 -30.17,67.37 -93.97,93.55 -165.02,97.22 -67.29,3.45 -145.01,-7.41 -200.56,-48.23 -0.9,-0.66 -1.16,-1.87 -0.62,-2.85l40.92 -73.96c0.3,-0.56 1.02,-0.7 1.53,-0.32 43.39,33.7 104.32,45.9 157.79,39.22 5.98,-0.74 13.58,-2.73 22.82,-5.92 26.77,-9.29 43.65,-27.88 50.65,-55.76 4.18,-16.61 5.66,-33.25 4.48,-49.89zm-190.91 -132.12c-0.1,54.83 43.45,88.47 96.02,88.55 52.58,0.1 96.23,-33.38 96.33,-88.23 0.1,-54.85 -43.45,-88.47 -96.03,-88.55 -52.57,-0.1 -96.24,33.38 -96.32,88.23z"/>
   <path class="fil3" d="M672.66 180.66c0.12,0 0.24,0 0.34,0 109.3,-1.61 200.5,72.91 200.5,186.65 0.02,113.74 -91.18,188.28 -200.46,186.69 -0.12,0 -0.22,0 -0.34,0 -0.12,0 -0.22,0 -0.34,0 -109.28,1.61 -200.5,-72.91 -200.5,-186.65 -0.02,-113.76 91.17,-188.28 200.46,-186.69 0.12,0 0.24,0 0.34,0zm-93.33 186.61c-0.02,55.57 35.1,100.13 93.35,100.15 58.22,0.02 93.38,-44.5 93.4,-100.07 0.02,-55.57 -35.12,-100.13 -93.34,-100.15 -58.23,-0.02 -93.39,44.5 -93.41,100.07z"/>
   <path class="fil3" d="M1604.87 434.7c0.32,-0.3 0.84,-0.3 1.14,0.03l55.36 59.54c0.64,0.69 0.62,1.75 -0.02,2.43 -43.45,46.1 -103.02,60.03 -165.16,57.06 -99.23,-4.78 -183.84,-64.49 -192.89,-168.61 -9.17,-105.51 62.05,-191.45 167.38,-203.05 99.73,-11 190.75,38.4 212.7,141.44 5.1,23.94 5.91,48.08 2.43,72.47 -0.08,0.5 -0.5,0.86 -1,0.86l-274.02 0c-0.68,0 -1.16,0.65 -1,1.31 14.91,59.83 74.96,77.69 129.63,69.18 24.99,-3.9 46.81,-14.77 65.45,-32.66zm-107.05 -99.42c23.64,0 53,-0.02 88.06,-0.06 1.03,0 1.79,-0.95 1.57,-1.95 -9.89,-45.44 -42.61,-72.69 -89.63,-72.69 -47.03,0 -79.74,27.27 -89.64,72.71 -0.22,1 0.55,1.95 1.57,1.95 35.06,0.02 64.43,0.04 88.07,0.04z"/>
   <path class="fil3" d="M1860.72 231.58c0,0.38 0.46,0.54 0.71,0.24 30.54,-37.74 76.2,-52.17 123.91,-50.96 0.66,0.02 1.2,0.56 1.2,1.22l0 94.93c0,0.55 -0.46,0.97 -0.98,0.91 -26.25,-2.67 -52.85,-1.71 -75.99,10.71 -34.36,18.47 -43.83,54.74 -43.83,91.08 -0.02,17.38 -0.02,73.2 0,167.43 0,1.06 -0.86,1.92 -1.93,1.92l-102.69 0c-0.95,0 -1.71,-0.78 -1.71,-1.72l0 -360.4c0,-0.72 0.58,-1.3 1.3,-1.3l98.97 -0.02c0.58,0 1.04,0.46 1.04,1.04l0 44.92z"/>
   <path class="fil3" d="M2419.13 304.51c-0.1,2.39 -0.38,4.14 -0.86,5.24 -33.5,74.7 -66.99,149.42 -100.45,224.16 -0.78,1.77 -1.55,2.67 -2.29,2.73 0.1,-95.71 0.12,-155.56 0.04,-179.51 -0.18,-47.48 -19.77,-85.19 -72.75,-85.13 -61.58,0.06 -88.51,41.84 -88.49,99.18 0.06,98.97 0.06,157.77 -0.02,176.42 -0.02,0.8 -0.68,1.46 -1.49,1.46l-102.76 0c-1.08,0 -1.96,-0.88 -1.96,-1.96l0 -360.44c0,-0.58 0.46,-1.04 1.04,-1.04l99.85 0c0.3,0 0.56,0.26 0.56,0.58l0 40.4c0,0.36 0.42,0.52 0.68,0.28 37.62,-37.45 86.37,-49.55 138.79,-45.48 71.71,5.58 120.52,52.34 130.11,123.11z"/>
   <path class="fil3" d="M1195.22 185.64l100.59 0c0.54,0 0.91,0.56 0.7,1.06l-153.55 361.9c-0.12,0.28 -0.4,0.46 -0.7,0.46l-108.72 0c-0.3,0 -0.58,-0.18 -0.71,-0.46l-152.89 -361.92c-0.2,-0.5 0.16,-1.06 0.7,-1.06l108.2 0c0.32,0 0.6,0.18 0.72,0.48l99.91 244.27c0.26,0.62 1.15,0.62 1.43,0l103.62 -244.27c0.12,-0.28 0.4,-0.46 0.7,-0.46z"/>
   <g>
    <polygon class="fil4" points="3000.54,259.66 3290.13,259.66 3290.13,78.1 3000.54,78.1 "/>
    <polygon class="fil2" points="3032.6,169.54 3144.71,98.67 3258.28,168.36 3146.18,238.94 "/>
    <path class="fil5" d="M3193.33 168.44c0,3.39 -0.33,6.7 -1.03,9.87 -0.74,3.74 -1.94,7.29 -3.51,10.63 -7.74,16.5 -24.49,27.97 -43.95,27.97 -26.77,0 -48.48,-21.7 -48.48,-48.47 0,-4.73 0.69,-9.27 1.97,-13.59 1.03,-3.62 2.49,-7.09 4.28,-10.32 8.39,-14.69 24.13,-24.58 42.23,-24.58 26.79,0 48.49,21.69 48.49,48.49z"/>
    <path class="fil6" d="M3192.3 178.31c-0.74,3.74 -1.94,7.29 -3.51,10.63l-0.2 -0.17c-10.23,-12.46 -25.84,-22.39 -44.17,-28.54 -16.92,-5.71 -42.35,-5.45 -46.09,-5.38 1.03,-3.62 2.49,-7.09 4.28,-10.32 0,0 16.33,-1.82 44.16,5.45 27.51,7.16 42.83,24.86 45.53,28.33z"/>
    <path class="fil7" d="M3106.36 153.11c-1.31,0.03 -2.05,-1.19 -2.08,-2.52 -0.09,-1.4 0.59,-2.68 1.94,-2.71 1.39,-0.05 2.07,1.28 2.11,2.52 0.02,1.46 -0.69,2.68 -1.97,2.71zm-0.09 -5.9c-1.72,0.03 -2.96,1.37 -2.88,3.41 0.03,1.96 1.28,3.19 2.93,3.16 1.64,-0.03 2.92,-1.24 2.89,-3.45 -0.06,-1.89 -1.25,-3.16 -2.94,-3.12z"/>
    <path class="fil7" d="M3111.99 150.25l-0.86 -0.03 0.05 -2.31c0.14,-0.03 0.42,-0.08 0.81,-0.08 0.84,0 1.45,0.4 1.45,1.22 0,0.72 -0.57,1.2 -1.45,1.2zm1.99 1.65c-0.14,-0.67 -0.43,-1.1 -0.91,-1.28l0 -0.03c0.65,-0.22 1.2,-0.79 1.2,-1.64 0,-0.47 -0.18,-0.94 -0.5,-1.22 -0.38,-0.35 -0.96,-0.52 -1.82,-0.52 -0.57,0 -1.17,0.03 -1.6,0.09l-0.08 6.3 0.83 0 0.03 -2.74 0.79 0c0.75,0.03 1.07,0.37 1.28,1.24 0.15,0.82 0.29,1.36 0.39,1.53l0.86 0.05c-0.15,-0.27 -0.29,-0.9 -0.47,-1.78z"/>
    <path class="fil7" d="M3117 153.17l-0.85 -0.09 0.25 -5.02c0.26,-0.05 0.57,-0.07 1.01,-0.05 1.74,0.08 2.52,1.08 2.46,2.58 -0.08,1.73 -1.11,2.66 -2.87,2.58zm2.93 -4.9c-0.55,-0.54 -1.36,-0.85 -2.52,-0.94 -0.68,-0.03 -1.29,0 -1.79,0.05l-0.32 6.3c0.41,0.07 0.93,0.1 1.47,0.13 1.27,0.08 2.26,-0.21 2.9,-0.78 0.6,-0.53 1,-1.38 1.05,-2.41 0.06,-1.04 -0.26,-1.78 -0.79,-2.35z"/>
    <polygon class="fil7" points="3125.52,148.7 3125.58,148.01 3122.13,147.7 3121.55,154.03 3125.11,154.39 3125.19,153.68 3122.4,153.41 3122.63,151.15 3125.11,151.36 3125.14,150.68 3122.7,150.47 3122.88,148.44 "/>
    <path class="fil7" d="M3131.89 148.84l-1.57 2.87c-0.4,0.79 -0.72,1.43 -0.98,2.04l-0.03 0c-0.05,-0.67 -0.16,-1.4 -0.32,-2.21l-0.62 -3.21 -1.08 -0.13 -1.31 6.22 0.76 0.16 0.55 -2.72c0.21,-0.92 0.4,-1.98 0.53,-2.77 0.06,0.79 0.21,1.63 0.4,2.56l0.6 3.17 0.6 0.06 1.58 -2.91c0.43,-0.82 0.81,-1.57 1.15,-2.28l0.03 0c-0.16,0.78 -0.23,1.85 -0.33,2.75l-0.22 2.8 0.79 0.1 0.48 -6.37 -1.01 -0.13z"/>
    <path class="fil7" d="M3139.22 156.24c-0.77,-0.18 -1.14,-0.84 -0.98,-1.53 0.16,-0.68 0.72,-0.96 1.11,-1.08 0.51,0.97 1,1.89 1.28,2.36 -0.38,0.29 -0.89,0.39 -1.41,0.25zm0.46 -4.48c0.11,-0.47 0.45,-0.82 1,-0.72 0.48,0.16 0.6,0.61 0.48,1.01 -0.1,0.49 -0.59,0.73 -1.3,0.94 -0.18,-0.38 -0.3,-0.78 -0.18,-1.23zm3.31 2.39l-0.72 -0.19c-0.32,0.75 -0.68,1.28 -1.08,1.63 -0.26,-0.53 -0.71,-1.36 -1.06,-2.05l0 -0.03c1.11,-0.26 1.61,-0.7 1.78,-1.32 0.2,-0.83 -0.29,-1.51 -1.06,-1.7 -1.03,-0.24 -1.74,0.4 -1.92,1.16 -0.14,0.45 -0.03,0.96 0.18,1.43l0 0.03c-0.82,0.22 -1.46,0.67 -1.69,1.52 -0.2,0.93 0.29,1.89 1.51,2.23 0.67,0.13 1.32,0.05 2,-0.31l0.4 0.76 0.97 0.24c-0.27,-0.49 -0.53,-0.93 -0.77,-1.35 0.6,-0.42 1.07,-1.14 1.46,-2.05z"/>
    <path class="fil7" d="M3151.1 155.64c-0.28,0.82 -1.04,1.09 -1.97,0.79l-0.63 -0.31 0.81 -2.34c0.15,0 0.4,0.06 0.75,0.18 0.87,0.27 1.29,0.86 1.04,1.68zm0.68 -1.25c-0.26,-0.43 -0.76,-0.79 -1.54,-1.06 -0.63,-0.22 -1.14,-0.34 -1.53,-0.41l-2 5.98 0.8 0.3 0.77 -2.44 0.64 0.26c0.75,0.26 1.49,0.26 2.07,-0.03 0.4,-0.23 0.72,-0.61 0.88,-1.14 0.2,-0.55 0.16,-1.03 -0.09,-1.46z"/>
    <path class="fil7" d="M3155.98 157.34c-0.29,0.67 -0.97,0.91 -1.79,0.61l-0.78 -0.29 0.82 -2.21c0.16,0.04 0.41,0.11 0.78,0.25 0.82,0.29 1.26,0.85 0.97,1.64zm0.72 -1.14c-0.23,-0.48 -0.68,-0.8 -1.51,-1.14 -0.55,-0.18 -1.09,-0.35 -1.52,-0.43l-2.25 5.9 0.77 0.31 0.97 -2.62 0.74 0.29c0.69,0.29 0.9,0.72 0.74,1.6 -0.09,0.82 -0.17,1.4 -0.14,1.58l0.82 0.31c-0.02,-0.28 0.07,-0.89 0.16,-1.81 0.09,-0.67 0,-1.2 -0.44,-1.54l0.02 -0.03c0.69,0.03 1.41,-0.32 1.68,-1.1 0.18,-0.46 0.18,-0.92 -0.04,-1.32z"/>
    <path class="fil7" d="M3161.64 161.27c-0.61,1.3 -1.79,2.08 -2.96,1.55 -1.22,-0.54 -1.39,-1.92 -0.83,-3.16 0.58,-1.28 1.7,-2.19 2.97,-1.6 1.24,0.56 1.31,2.02 0.82,3.21zm-0.52 -3.83c-1.57,-0.68 -3.22,0 -4.08,1.86 -0.77,1.78 -0.22,3.46 1.31,4.13 1.47,0.66 3.17,0.15 4.05,-1.86 0.8,-1.74 0.35,-3.4 -1.28,-4.13z"/>
    <path class="fil7" d="M3167.74 160.84c-1.87,-1.03 -3.68,-0.47 -4.61,1.2 -0.47,0.85 -0.61,1.78 -0.35,2.48 0.24,0.87 0.81,1.43 1.65,1.93 0.75,0.39 1.52,0.57 1.89,0.61l1.5 -2.67 -1.85 -1.04 -0.31 0.61 1.14 0.6 -0.93 1.68c-0.21,0 -0.59,-0.11 -1.03,-0.35 -1.33,-0.76 -1.71,-2.04 -0.92,-3.47 0.77,-1.41 2.11,-1.77 3.48,-1.01 0.56,0.31 0.88,0.63 1.08,0.92l0.52 -0.5c-0.16,-0.26 -0.61,-0.65 -1.26,-0.99z"/>
    <path class="fil7" d="M3170.42 166.01l-0.7 -0.45 1.28 -1.95c0.12,0.02 0.37,0.19 0.74,0.39 0.71,0.49 1,1.13 0.56,1.82 -0.41,0.59 -1.14,0.71 -1.88,0.19zm2.61 0.15c0.27,-0.39 0.37,-0.85 0.27,-1.27 -0.13,-0.5 -0.53,-0.98 -1.27,-1.46 -0.48,-0.28 -0.99,-0.61 -1.4,-0.77l-3.45 5.29 0.68 0.42 1.52 -2.27 0.64 0.43c0.61,0.42 0.72,0.88 0.4,1.73 -0.28,0.77 -0.49,1.28 -0.49,1.49l0.7 0.46c0.03,-0.28 0.25,-0.88 0.58,-1.74 0.21,-0.63 0.24,-1.17 -0.09,-1.56l0 -0.03c0.69,0.18 1.43,0 1.91,-0.72z"/>
    <polygon class="fil7" points="3177.46,168.29 3177.88,167.73 3175.15,165.68 3171.32,170.73 3174.14,172.89 3174.54,172.36 3172.38,170.68 3173.76,168.84 3175.71,170.37 3176.14,169.78 3174.14,168.29 3175.4,166.69 "/>
    <path class="fil7" d="M3180.56 169.78c-0.96,-0.75 -2.04,-0.72 -2.71,0 -0.56,0.68 -0.45,1.56 0.12,2.47 0.44,0.82 0.49,1.33 0.08,1.78 -0.39,0.47 -1.05,0.5 -1.73,-0.03 -0.41,-0.39 -0.7,-0.9 -0.84,-1.3l-0.62 0.4c0.1,0.4 0.54,0.97 1,1.35 1.14,0.99 2.25,0.82 2.89,0.05 0.6,-0.73 0.53,-1.46 -0.04,-2.47 -0.43,-0.84 -0.53,-1.3 -0.17,-1.77 0.28,-0.33 0.88,-0.51 1.57,0.04 0.42,0.38 0.62,0.81 0.71,1.04l0.6 -0.37c-0.11,-0.32 -0.37,-0.76 -0.86,-1.19z"/>
    <path class="fil7" d="M3184.2 173.04c-0.94,-0.83 -2.04,-0.85 -2.72,-0.12 -0.6,0.69 -0.49,1.49 0.03,2.46 0.41,0.85 0.44,1.31 0.05,1.78 -0.49,0.46 -1.1,0.46 -1.74,-0.1 -0.43,-0.4 -0.68,-0.89 -0.79,-1.31l-0.65 0.33c0.14,0.43 0.46,1.01 0.94,1.43 1.11,1.01 2.24,0.9 2.87,0.15 0.66,-0.68 0.61,-1.43 0.08,-2.49 -0.42,-0.82 -0.5,-1.32 -0.11,-1.73 0.29,-0.34 0.9,-0.52 1.52,0.08 0.43,0.4 0.62,0.83 0.72,1.04l0.62 -0.32c-0.12,-0.32 -0.36,-0.74 -0.82,-1.2z"/>
    <path class="fil7" d="M3187.37 180.59c-1.04,1.01 -2.39,1.38 -3.36,0.45 -0.92,-0.88 -0.62,-2.28 0.36,-3.28 0.97,-1 2.33,-1.41 3.31,-0.46 1.01,0.98 0.54,2.34 -0.31,3.29zm0.82 -3.75c-1.23,-1.17 -3.03,-1.09 -4.46,0.32 -1.36,1.39 -1.41,3.17 -0.22,4.34 1.18,1.14 2.97,1.25 4.48,-0.37 1.32,-1.33 1.46,-3.07 0.2,-4.29z"/>
    <polygon class="fil6" points="3174.95,186.46 3174.37,187.04 3173.76,186.46 3174.37,185.85 "/>
    <polygon class="fil6" points="3170.64,186.73 3170.05,187.34 3169.46,186.73 3170.05,186.15 "/>
    <polygon class="fil6" points="3170.21,189.79 3169.7,190.31 3169.17,189.79 3169.7,189.26 "/>
    <polygon class="fil6" points="3169.38,191.6 3168.9,192.09 3168.42,191.6 3168.9,191.12 "/>
    <polygon class="fil6" points="3167.43,192.57 3166.95,193.07 3166.46,192.57 3166.95,192.09 "/>
    <polygon class="fil6" points="3164.69,193.3 3164.2,193.79 3163.71,193.3 3164.2,192.81 "/>
    <path class="fil6" d="M3166.8 196.68l-0.58 0.6c-0.35,0 -0.63,-0.26 -0.63,-0.6 0,-0.34 0.28,-0.61 0.63,-0.61l0.58 0.61z"/>
    <path class="fil6" d="M3166.95 199.5l-0.59 0.58c-0.34,0 -0.62,-0.27 -0.62,-0.58 0,-0.32 0.28,-0.59 0.62,-0.59l0.59 0.59z"/>
    <polygon class="fil6" points="3156.86,193.36 3156.47,193.76 3156.06,193.36 3156.47,192.96 "/>
    <polygon class="fil6" points="3153.96,193.36 3153.56,193.76 3153.16,193.36 3153.56,192.96 "/>
    <polygon class="fil6" points="3154.96,196.88 3154.56,197.28 3154.16,196.88 3154.56,196.46 "/>
    <polygon class="fil6" points="3143.35,201.87 3142.77,202.46 3142.18,201.87 3142.77,201.27 "/>
    <polygon class="fil6" points="3142.77,187.63 3142.18,188.22 3141.59,187.63 3142.18,187.04 "/>
    <polygon class="fil6" points="3146.49,183.18 3145.9,183.78 3145.3,183.18 3145.9,182.6 "/>
    <polygon class="fil6" points="3142.03,179.03 3141.43,179.63 3140.85,179.03 3141.43,178.44 "/>
    <path class="fil6" d="M3137.72 182.01c0,0.31 -0.24,0.59 -0.59,0.59l-0.58 -0.59 0.58 -0.6c0.35,0 0.59,0.27 0.59,0.6z"/>
    <polygon class="fil6" points="3139.89,184.08 3139.52,184.45 3139.14,184.08 3139.52,183.7 "/>
    <polygon class="fil6" points="3153.44,168.05 3152.86,168.66 3152.27,168.05 3152.86,167.47 "/>
    <polygon class="fil6" points="3158.05,150.86 3157.46,151.47 3156.86,150.86 3157.46,150.27 "/>
    <polygon class="fil6" points="3127.81,171.48 3127.21,172.06 3126.63,171.48 3127.21,170.88 "/>
    <polygon class="fil6" points="3122.76,193.28 3122.18,193.86 3121.58,193.28 3122.18,192.66 "/>
    <polygon class="fil6" points="3114.45,190 3114.01,190.44 3113.56,190 3114.01,189.56 "/>
    <polygon class="fil6" points="3114.76,186.31 3114.31,186.73 3113.86,186.31 3114.31,185.85 "/>
    <polygon class="fil6" points="3112.41,183.11 3112,183.52 3111.6,183.11 3112,182.72 "/>
    <polygon class="fil6" points="3107.63,183.63 3107.04,184.23 3106.45,183.63 3107.04,183.03 "/>
    <polygon class="fil6" points="3103.01,185.79 3102.68,186.12 3102.33,185.79 3102.68,185.45 "/>
    <polygon class="fil6" points="3103.47,161.39 3102.89,161.98 3102.29,161.39 3102.89,160.79 "/>
   </g>
  </g>
 </g>
</svg>
