<?xml version="1.0" encoding="UTF-8"?>
<!DOCTYPE svg PUBLIC "-//W3C//DTD SVG 1.1//EN" "http://www.w3.org/Graphics/SVG/1.1/DTD/svg11.dtd">
<!-- Creator: CorelDRAW 2020 (64 Bit) -->
<svg xmlns="http://www.w3.org/2000/svg" xml:space="preserve" width="9.47mm" height="9.438mm" version="1.1" style="shape-rendering:geometricPrecision; text-rendering:geometricPrecision; image-rendering:optimizeQuality; fill-rule:evenodd; clip-rule:evenodd"
viewBox="0 0 947 943.8"
 xmlns:xlink="http://www.w3.org/1999/xlink"
 xmlns:xodm="http://www.corel.com/coreldraw/odm/2003">
 <defs>
  <style type="text/css">
   <![CDATA[
    .fil0 {fill:none}
    .fil1 {fill:none;fill-rule:nonzero}
    .fil6 {fill:#FEFEFE;fill-rule:nonzero}
    .fil7 {fill:#4AB968;fill-rule:nonzero}
    .fil3 {fill:black;fill-rule:nonzero}
    .fil5 {fill:#002478;fill-rule:nonzero}
    .fil4 {fill:#009B36;fill-rule:nonzero}
    .fil2 {fill:#FFC501;fill-rule:nonzero}
   ]]>
  </style>
 </defs>
 <g id="Camada_x0020_1">
  <metadata id="CorelCorpID_0Corel-Layer"/>
  <g id="_2277568102896">
   <g id="_2312479282064">
    <rect class="fil0" x="21316.89" y="-895.36" width="3294.06" height="754.06"/>
   </g>
  </g>
  <g id="_2277568101360">
   <path class="fil1" d="M23739.95 -564.09c-9.59,-70.77 -58.4,-117.53 -130.11,-123.11 -52.42,-4.07 -101.17,8.03 -138.79,45.48 -0.26,0.24 -0.68,0.08 -0.68,-0.28l0 -40.4c0,-0.32 -0.26,-0.58 -0.56,-0.58l-99.85 0c-0.58,0 -1.04,0.46 -1.04,1.04l0 360.44c0,1.08 0.88,1.96 1.96,1.96l102.76 0c0.81,0 1.47,-0.66 1.49,-1.46 0.08,-18.65 0.08,-77.45 0.02,-176.42 -0.02,-57.34 26.91,-99.12 88.49,-99.18 52.98,-0.06 72.57,37.65 72.75,85.13 0.08,23.95 0.06,83.8 -0.04,179.51"/>
   <path class="fil1" d="M23636.35 -331.96l-2.77 10.18c-0.3,1.08 0.5,2.14 1.63,2.14l107.35 0c1.35,0 2.55,-0.8 3.05,-2.02l40.98 -96.58c0.73,-1.69 2.37,-2.79 4.22,-2.79l214.41 0c1.64,0 3.13,1 3.75,2.53l38.84 94.91c0.98,2.41 3.31,3.97 5.9,3.97l109.72 0c1.08,0 1.81,-1.12 1.37,-2.12l-210.56 -468.38c-0.64,-1.42 -2.05,-2.35 -3.61,-2.35l-104.63 0c-1.32,0 -2.51,0.77 -3.05,1.97 -37.51,83.63 -71.29,159.06 -101.31,226.27 -0.2,0.42 -0.76,0.48 -1.69,0.14"/>
   <path class="fil1" d="M23636.35 -331.96c0.74,-0.06 1.51,-0.96 2.29,-2.73 33.46,-74.74 66.95,-149.46 100.45,-224.16 0.48,-1.1 0.76,-2.85 0.86,-5.24"/>
   <path class="fil1" d="M24321.36 -790.5c0,-1.12 -0.9,-2.03 -2.03,-2.03l-102.15 0c-1.13,0 -2.03,0.91 -2.03,2.03l0 468.64c0,1.12 0.9,2.02 2.03,2.02l102.15 0c1.13,0 2.03,-0.9 2.03,-2.02l0 -468.64z"/>
   <path class="fil1" d="M21615.58 -380.99c1.18,16.64 -0.3,33.28 -4.48,49.89 -7,27.88 -23.88,46.47 -50.65,55.76 -9.24,3.19 -16.84,5.18 -22.82,5.92 -53.47,6.68 -114.4,-5.52 -157.79,-39.22 -0.51,-0.38 -1.23,-0.24 -1.53,0.32l-40.92 73.96c-0.54,0.98 -0.28,2.19 0.62,2.85 55.55,40.82 133.27,51.68 200.56,48.23 71.05,-3.67 134.85,-29.85 165.02,-97.22 11.42,-25.53 17.96,-59.77 18.04,-87.49 0.18,-85.76 0.2,-190.16 0.06,-313.21 0,-0.98 -0.78,-1.78 -1.77,-1.78l-98.12 0c-0.34,0 -0.62,0.28 -0.62,0.62l0 43.83c0,0.7 -0.88,1.02 -1.33,0.48 -30.64,-36.45 -73.15,-50.01 -120.92,-49.99 -98.58,0.02 -179.85,68.04 -181.99,170.07 -2.21,104.73 76,178.81 178.48,180.15 44.64,0.58 87.34,-10.34 118.98,-43.61 0.42,-0.42 1.14,-0.16 1.18,0.44z"/>
   <path class="fil1" d="M21792.68 -501.25c0,113.74 91.22,188.26 200.5,186.65 0.12,0 0.22,0 0.34,0 0.12,0 0.22,0 0.34,0 109.28,1.59 200.48,-72.95 200.46,-186.69 0,-113.74 -91.2,-188.26 -200.5,-186.65 -0.1,0 -0.22,0 -0.34,0 -0.1,0 -0.22,0 -0.34,0 -109.29,-1.59 -200.48,72.93 -200.46,186.69z"/>
   <path class="fil1" d="M22925.69 -433.9c-18.64,17.89 -40.46,28.76 -65.45,32.66 -54.67,8.51 -114.72,-9.35 -129.63,-69.18 -0.16,-0.66 0.32,-1.31 1,-1.31l274.02 0c0.5,0 0.92,-0.36 1,-0.86 3.48,-24.39 2.67,-48.53 -2.43,-72.47 -21.95,-103.04 -112.97,-152.44 -212.7,-141.44 -105.33,11.6 -176.55,97.54 -167.38,203.05 9.05,104.12 93.66,163.83 192.89,168.61 62.14,2.97 121.71,-10.96 165.16,-57.06 0.64,-0.68 0.66,-1.74 0.02,-2.43l-55.36 -59.54c-0.3,-0.33 -0.82,-0.33 -1.14,-0.03z"/>
   <path class="fil1" d="M23181.54 -637.02l0 -44.92c0,-0.58 -0.46,-1.04 -1.04,-1.04l-98.97 0.02c-0.72,0 -1.3,0.58 -1.3,1.3l0 360.4c0,0.94 0.76,1.72 1.71,1.72l102.69 0c1.07,0 1.93,-0.86 1.93,-1.92 -0.02,-94.23 -0.02,-150.05 0,-167.43 0,-36.34 9.47,-72.61 43.83,-91.08 23.14,-12.42 49.74,-13.38 75.99,-10.71 0.52,0.06 0.98,-0.36 0.98,-0.91l0 -94.93c0,-0.66 -0.54,-1.2 -1.2,-1.22 -47.71,-1.21 -93.37,13.22 -123.91,50.96 -0.25,0.3 -0.71,0.14 -0.71,-0.24z"/>
   <path class="fil1" d="M22516.04 -682.96c-0.3,0 -0.58,0.18 -0.7,0.46l-103.62 244.27c-0.28,0.62 -1.17,0.62 -1.43,0l-99.91 -244.27c-0.12,-0.3 -0.4,-0.48 -0.72,-0.48l-108.2 0c-0.54,0 -0.9,0.56 -0.7,1.06l152.89 361.92c0.13,0.28 0.41,0.46 0.71,0.46l108.72 0c0.3,0 0.58,-0.18 0.7,-0.46l153.55 -361.9c0.21,-0.5 -0.16,-1.06 -0.7,-1.06l-100.59 0z"/>
   <path class="fil1" d="M23823.46 -505.99c-0.4,0.99 0.32,2.07 1.39,2.07l145.91 0c1.06,0 1.78,-1.08 1.38,-2.07l-72.95 -175.47c-0.5,-1.24 -2.27,-1.24 -2.77,0l-72.96 175.47z"/>
   <path class="fil1" d="M21424.67 -513.11c-0.1,54.83 43.45,88.47 96.02,88.55 52.58,0.1 96.23,-33.38 96.33,-88.23 0.1,-54.85 -43.45,-88.47 -96.03,-88.55 -52.57,-0.1 -96.24,33.38 -96.32,88.23z"/>
   <path class="fil1" d="M21900.15 -501.33c-0.02,55.57 35.1,100.13 93.35,100.15 58.22,0.02 93.38,-44.5 93.4,-100.07 0.02,-55.57 -35.12,-100.13 -93.34,-100.15 -58.23,-0.02 -93.39,44.5 -93.41,100.07z"/>
   <path class="fil1" d="M22818.64 -533.32c23.64,0 53,-0.02 88.06,-0.06 1.03,0 1.79,-0.95 1.57,-1.95 -9.89,-45.44 -42.61,-72.69 -89.63,-72.69 -47.03,0 -79.74,27.27 -89.64,72.71 -0.22,1 0.55,1.95 1.57,1.95 35.06,0.02 64.43,0.04 88.07,0.04z"/>
   <path class="fil2" d="M23636.35 -331.96c0.74,-0.06 1.51,-0.96 2.29,-2.73 33.46,-74.74 66.95,-149.46 100.45,-224.16 0.48,-1.1 0.76,-2.85 0.86,-5.24 0.93,0.34 1.49,0.28 1.69,-0.14 30.02,-67.21 63.8,-142.64 101.31,-226.27 0.54,-1.2 1.73,-1.97 3.05,-1.97l104.63 0c1.56,0 2.97,0.93 3.61,2.35l210.56 468.38c0.44,1 -0.29,2.12 -1.37,2.12l-109.72 0c-2.59,0 -4.92,-1.56 -5.9,-3.97l-38.84 -94.91c-0.62,-1.53 -2.11,-2.53 -3.75,-2.53l-214.41 0c-1.85,0 -3.49,1.1 -4.22,2.79l-40.98 96.58c-0.5,1.22 -1.7,2.02 -3.05,2.02l-107.35 0c-1.13,0 -1.93,-1.06 -1.63,-2.14l2.77 -10.18zm187.11 -174.03c-0.4,0.99 0.32,2.07 1.39,2.07l145.91 0c1.06,0 1.78,-1.08 1.38,-2.07l-72.95 -175.47c-0.5,-1.24 -2.27,-1.24 -2.77,0l-72.96 175.47z"/>
   <path class="fil2" d="M24321.36 -321.86c0,1.12 -0.9,2.02 -2.03,2.02l-102.15 0c-1.13,0 -2.03,-0.9 -2.03,-2.02l0 -468.64c0,-1.12 0.9,-2.03 2.03,-2.03l102.15 0c1.13,0 2.03,0.91 2.03,2.03l0 468.64z"/>
   <path class="fil3" d="M21615.58 -380.99c-0.04,-0.6 -0.76,-0.86 -1.18,-0.44 -31.64,33.27 -74.34,44.19 -118.98,43.61 -102.48,-1.34 -180.69,-75.42 -178.48,-180.15 2.14,-102.03 83.41,-170.05 181.99,-170.07 47.77,-0.02 90.28,13.54 120.92,49.99 0.45,0.54 1.33,0.22 1.33,-0.48l0 -43.83c0,-0.34 0.28,-0.62 0.62,-0.62l98.12 0c0.99,0 1.77,0.8 1.77,1.78 0.14,123.05 0.12,227.45 -0.06,313.21 -0.08,27.72 -6.62,61.96 -18.04,87.49 -30.17,67.37 -93.97,93.55 -165.02,97.22 -67.29,3.45 -145.01,-7.41 -200.56,-48.23 -0.9,-0.66 -1.16,-1.87 -0.62,-2.85l40.92 -73.96c0.3,-0.56 1.02,-0.7 1.53,-0.32 43.39,33.7 104.32,45.9 157.79,39.22 5.98,-0.74 13.58,-2.73 22.82,-5.92 26.77,-9.29 43.65,-27.88 50.65,-55.76 4.18,-16.61 5.66,-33.25 4.48,-49.89zm-190.91 -132.12c-0.1,54.83 43.45,88.47 96.02,88.55 52.58,0.1 96.23,-33.38 96.33,-88.23 0.1,-54.85 -43.45,-88.47 -96.03,-88.55 -52.57,-0.1 -96.24,33.38 -96.32,88.23z"/>
   <path class="fil3" d="M21993.48 -687.94c0.12,0 0.24,0 0.34,0 109.3,-1.61 200.5,72.91 200.5,186.65 0.02,113.74 -91.18,188.28 -200.46,186.69 -0.12,0 -0.22,0 -0.34,0 -0.12,0 -0.22,0 -0.34,0 -109.28,1.61 -200.5,-72.91 -200.5,-186.65 -0.02,-113.76 91.17,-188.28 200.46,-186.69 0.12,0 0.24,0 0.34,0zm-93.33 186.61c-0.02,55.57 35.1,100.13 93.35,100.15 58.22,0.02 93.38,-44.5 93.4,-100.07 0.02,-55.57 -35.12,-100.13 -93.34,-100.15 -58.23,-0.02 -93.39,44.5 -93.41,100.07z"/>
   <path class="fil3" d="M22925.69 -433.9c0.32,-0.3 0.84,-0.3 1.14,0.03l55.36 59.54c0.64,0.69 0.62,1.75 -0.02,2.43 -43.45,46.1 -103.02,60.03 -165.16,57.06 -99.23,-4.78 -183.84,-64.49 -192.89,-168.61 -9.17,-105.51 62.05,-191.45 167.38,-203.05 99.73,-11 190.75,38.4 212.7,141.44 5.1,23.94 5.91,48.08 2.43,72.47 -0.08,0.5 -0.5,0.86 -1,0.86l-274.02 0c-0.68,0 -1.16,0.65 -1,1.31 14.91,59.83 74.96,77.69 129.63,69.18 24.99,-3.9 46.81,-14.77 65.45,-32.66zm-107.05 -99.42c23.64,0 53,-0.02 88.06,-0.06 1.03,0 1.79,-0.95 1.57,-1.95 -9.89,-45.44 -42.61,-72.69 -89.63,-72.69 -47.03,0 -79.74,27.27 -89.64,72.71 -0.22,1 0.55,1.95 1.57,1.95 35.06,0.02 64.43,0.04 88.07,0.04z"/>
   <path class="fil3" d="M23181.54 -637.02c0,0.38 0.46,0.54 0.71,0.24 30.54,-37.74 76.2,-52.17 123.91,-50.96 0.66,0.02 1.2,0.56 1.2,1.22l0 94.93c0,0.55 -0.46,0.97 -0.98,0.91 -26.25,-2.67 -52.85,-1.71 -75.99,10.71 -34.36,18.47 -43.83,54.74 -43.83,91.08 -0.02,17.38 -0.02,73.2 0,167.43 0,1.06 -0.86,1.92 -1.93,1.92l-102.69 0c-0.95,0 -1.71,-0.78 -1.71,-1.72l0 -360.4c0,-0.72 0.58,-1.3 1.3,-1.3l98.97 -0.02c0.58,0 1.04,0.46 1.04,1.04l0 44.92z"/>
   <path class="fil3" d="M23739.95 -564.09c-0.1,2.39 -0.38,4.14 -0.86,5.24 -33.5,74.7 -66.99,149.42 -100.45,224.16 -0.78,1.77 -1.55,2.67 -2.29,2.73 0.1,-95.71 0.12,-155.56 0.04,-179.51 -0.18,-47.48 -19.77,-85.19 -72.75,-85.13 -61.58,0.06 -88.51,41.84 -88.49,99.18 0.06,98.97 0.06,157.77 -0.02,176.42 -0.02,0.8 -0.68,1.46 -1.49,1.46l-102.76 0c-1.08,0 -1.96,-0.88 -1.96,-1.96l0 -360.44c0,-0.58 0.46,-1.04 1.04,-1.04l99.85 0c0.3,0 0.56,0.26 0.56,0.58l0 40.4c0,0.36 0.42,0.52 0.68,0.28 37.62,-37.45 86.37,-49.55 138.79,-45.48 71.71,5.58 120.52,52.34 130.11,123.11z"/>
   <path class="fil3" d="M22516.04 -682.96l100.59 0c0.54,0 0.91,0.56 0.7,1.06l-153.55 361.9c-0.12,0.28 -0.4,0.46 -0.7,0.46l-108.72 0c-0.3,0 -0.58,-0.18 -0.71,-0.46l-152.89 -361.92c-0.2,-0.5 0.16,-1.06 0.7,-1.06l108.2 0c0.32,0 0.6,0.18 0.72,0.48l99.91 244.27c0.26,0.62 1.15,0.62 1.43,0l103.62 -244.27c0.12,-0.28 0.4,-0.46 0.7,-0.46z"/>
   <g>
    <polygon class="fil4" points="24321.36,-608.94 24610.95,-608.94 24610.95,-790.5 24321.36,-790.5 "/>
    <polygon class="fil2" points="24353.42,-699.06 24465.53,-769.93 24579.1,-700.24 24467,-629.66 "/>
    <path class="fil5" d="M24514.15 -700.16c0,3.39 -0.33,6.7 -1.03,9.87 -0.74,3.74 -1.94,7.29 -3.51,10.63 -7.74,16.5 -24.49,27.97 -43.95,27.97 -26.77,0 -48.48,-21.7 -48.48,-48.47 0,-4.73 0.69,-9.27 1.97,-13.59 1.03,-3.62 2.49,-7.09 4.28,-10.32 8.39,-14.69 24.13,-24.58 42.23,-24.58 26.79,0 48.49,21.69 48.49,48.49z"/>
    <path class="fil6" d="M24513.12 -690.29c-0.74,3.74 -1.94,7.29 -3.51,10.63l-0.2 -0.17c-10.23,-12.46 -25.84,-22.39 -44.17,-28.54 -16.92,-5.71 -42.35,-5.45 -46.09,-5.38 1.03,-3.62 2.49,-7.09 4.28,-10.32 0,0 16.33,-1.82 44.16,5.45 27.51,7.16 42.83,24.86 45.53,28.33z"/>
    <path class="fil7" d="M24427.18 -715.49c-1.31,0.03 -2.05,-1.19 -2.08,-2.52 -0.09,-1.4 0.59,-2.68 1.94,-2.71 1.39,-0.05 2.07,1.28 2.11,2.52 0.02,1.46 -0.69,2.68 -1.97,2.71zm-0.09 -5.9c-1.72,0.03 -2.96,1.37 -2.88,3.41 0.03,1.96 1.28,3.19 2.93,3.16 1.64,-0.03 2.92,-1.24 2.89,-3.45 -0.06,-1.89 -1.25,-3.16 -2.94,-3.12z"/>
    <path class="fil7" d="M24432.81 -718.35l-0.86 -0.03 0.05 -2.31c0.14,-0.03 0.42,-0.08 0.81,-0.08 0.84,0 1.45,0.4 1.45,1.22 0,0.72 -0.57,1.2 -1.45,1.2zm1.99 1.65c-0.14,-0.67 -0.43,-1.1 -0.91,-1.28l0 -0.03c0.65,-0.22 1.2,-0.79 1.2,-1.64 0,-0.47 -0.18,-0.94 -0.5,-1.22 -0.38,-0.35 -0.96,-0.52 -1.82,-0.52 -0.57,0 -1.17,0.03 -1.6,0.09l-0.08 6.3 0.83 0 0.03 -2.74 0.79 0c0.75,0.03 1.07,0.37 1.28,1.24 0.15,0.82 0.29,1.36 0.39,1.53l0.86 0.05c-0.15,-0.27 -0.29,-0.9 -0.47,-1.78z"/>
    <path class="fil7" d="M24437.82 -715.43l-0.85 -0.09 0.25 -5.02c0.26,-0.05 0.57,-0.07 1.01,-0.05 1.74,0.08 2.52,1.08 2.46,2.58 -0.08,1.73 -1.11,2.66 -2.87,2.58zm2.93 -4.9c-0.55,-0.54 -1.36,-0.85 -2.52,-0.94 -0.68,-0.03 -1.29,0 -1.79,0.05l-0.32 6.3c0.41,0.07 0.93,0.1 1.47,0.13 1.27,0.08 2.26,-0.21 2.9,-0.78 0.6,-0.53 1,-1.38 1.05,-2.41 0.06,-1.04 -0.26,-1.78 -0.79,-2.35z"/>
    <polygon class="fil7" points="24446.34,-719.9 24446.4,-720.59 24442.95,-720.9 24442.37,-714.57 24445.93,-714.21 24446.01,-714.92 24443.22,-715.19 24443.45,-717.45 24445.93,-717.24 24445.96,-717.92 24443.52,-718.13 24443.7,-720.16 "/>
    <path class="fil7" d="M24452.71 -719.76l-1.57 2.87c-0.4,0.79 -0.72,1.43 -0.98,2.04l-0.03 0c-0.05,-0.67 -0.16,-1.4 -0.32,-2.21l-0.62 -3.21 -1.08 -0.13 -1.31 6.22 0.76 0.16 0.55 -2.72c0.21,-0.92 0.4,-1.98 0.53,-2.77 0.06,0.79 0.21,1.63 0.4,2.56l0.6 3.17 0.6 0.06 1.58 -2.91c0.43,-0.82 0.81,-1.57 1.15,-2.28l0.03 0c-0.16,0.78 -0.23,1.85 -0.33,2.75l-0.22 2.8 0.79 0.1 0.48 -6.37 -1.01 -0.13z"/>
    <path class="fil7" d="M24460.04 -712.36c-0.77,-0.18 -1.14,-0.84 -0.98,-1.53 0.16,-0.68 0.72,-0.96 1.11,-1.08 0.51,0.97 1,1.89 1.28,2.36 -0.38,0.29 -0.89,0.39 -1.41,0.25zm0.46 -4.48c0.11,-0.47 0.45,-0.82 1,-0.72 0.48,0.16 0.6,0.61 0.48,1.01 -0.1,0.49 -0.59,0.73 -1.3,0.94 -0.18,-0.38 -0.3,-0.78 -0.18,-1.23zm3.31 2.39l-0.72 -0.19c-0.32,0.75 -0.68,1.28 -1.08,1.63 -0.26,-0.53 -0.71,-1.36 -1.06,-2.05l0 -0.03c1.11,-0.26 1.61,-0.7 1.78,-1.32 0.2,-0.83 -0.29,-1.51 -1.06,-1.7 -1.03,-0.24 -1.74,0.4 -1.92,1.16 -0.14,0.45 -0.03,0.96 0.18,1.43l0 0.03c-0.82,0.22 -1.46,0.67 -1.69,1.52 -0.2,0.93 0.29,1.89 1.51,2.23 0.67,0.13 1.32,0.05 2,-0.31l0.4 0.76 0.97 0.24c-0.27,-0.49 -0.53,-0.93 -0.77,-1.35 0.6,-0.42 1.07,-1.14 1.46,-2.05z"/>
    <path class="fil7" d="M24471.92 -712.96c-0.28,0.82 -1.04,1.09 -1.97,0.79l-0.63 -0.31 0.81 -2.34c0.15,0 0.4,0.06 0.75,0.18 0.87,0.27 1.29,0.86 1.04,1.68zm0.68 -1.25c-0.26,-0.43 -0.76,-0.79 -1.54,-1.06 -0.63,-0.22 -1.14,-0.34 -1.53,-0.41l-2 5.98 0.8 0.3 0.77 -2.44 0.64 0.26c0.75,0.26 1.49,0.26 2.07,-0.03 0.4,-0.23 0.72,-0.61 0.88,-1.14 0.2,-0.55 0.16,-1.03 -0.09,-1.46z"/>
    <path class="fil7" d="M24476.8 -711.26c-0.29,0.67 -0.97,0.91 -1.79,0.61l-0.78 -0.29 0.82 -2.21c0.16,0.04 0.41,0.11 0.78,0.25 0.82,0.29 1.26,0.85 0.97,1.64zm0.72 -1.14c-0.23,-0.48 -0.68,-0.8 -1.51,-1.14 -0.55,-0.18 -1.09,-0.35 -1.52,-0.43l-2.25 5.9 0.77 0.31 0.97 -2.62 0.74 0.29c0.69,0.29 0.9,0.72 0.74,1.6 -0.09,0.82 -0.17,1.4 -0.14,1.58l0.82 0.31c-0.02,-0.28 0.07,-0.89 0.16,-1.81 0.09,-0.67 0,-1.2 -0.44,-1.54l0.02 -0.03c0.69,0.03 1.41,-0.32 1.68,-1.1 0.18,-0.46 0.18,-0.92 -0.04,-1.32z"/>
    <path class="fil7" d="M24482.46 -707.33c-0.61,1.3 -1.79,2.08 -2.96,1.55 -1.22,-0.54 -1.39,-1.92 -0.83,-3.16 0.58,-1.28 1.7,-2.19 2.97,-1.6 1.24,0.56 1.31,2.02 0.82,3.21zm-0.52 -3.83c-1.57,-0.68 -3.22,0 -4.08,1.86 -0.77,1.78 -0.22,3.46 1.31,4.13 1.47,0.66 3.17,0.15 4.05,-1.86 0.8,-1.74 0.35,-3.4 -1.28,-4.13z"/>
    <path class="fil7" d="M24488.56 -707.76c-1.87,-1.03 -3.68,-0.47 -4.61,1.2 -0.47,0.85 -0.61,1.78 -0.35,2.48 0.24,0.87 0.81,1.43 1.65,1.93 0.75,0.39 1.52,0.57 1.89,0.61l1.5 -2.67 -1.85 -1.04 -0.31 0.61 1.14 0.6 -0.93 1.68c-0.21,0 -0.59,-0.11 -1.03,-0.35 -1.33,-0.76 -1.71,-2.04 -0.92,-3.47 0.77,-1.41 2.11,-1.77 3.48,-1.01 0.56,0.31 0.88,0.63 1.08,0.92l0.52 -0.5c-0.16,-0.26 -0.61,-0.65 -1.26,-0.99z"/>
    <path class="fil7" d="M24491.24 -702.59l-0.7 -0.45 1.28 -1.95c0.12,0.02 0.37,0.19 0.74,0.39 0.71,0.49 1,1.13 0.56,1.82 -0.41,0.59 -1.14,0.71 -1.88,0.19zm2.61 0.15c0.27,-0.39 0.37,-0.85 0.27,-1.27 -0.13,-0.5 -0.53,-0.98 -1.27,-1.46 -0.48,-0.28 -0.99,-0.61 -1.4,-0.77l-3.45 5.29 0.68 0.42 1.52 -2.27 0.64 0.43c0.61,0.42 0.72,0.88 0.4,1.73 -0.28,0.77 -0.49,1.28 -0.49,1.49l0.7 0.46c0.03,-0.28 0.25,-0.88 0.58,-1.74 0.21,-0.63 0.24,-1.17 -0.09,-1.56l0 -0.03c0.69,0.18 1.43,0 1.91,-0.72z"/>
    <polygon class="fil7" points="24498.28,-700.31 24498.7,-700.87 24495.97,-702.92 24492.14,-697.87 24494.96,-695.71 24495.36,-696.24 24493.2,-697.92 24494.58,-699.76 24496.53,-698.23 24496.96,-698.82 24494.96,-700.31 24496.22,-701.91 "/>
    <path class="fil7" d="M24501.38 -698.82c-0.96,-0.75 -2.04,-0.72 -2.71,0 -0.56,0.68 -0.45,1.56 0.12,2.47 0.44,0.82 0.49,1.33 0.08,1.78 -0.39,0.47 -1.05,0.5 -1.73,-0.03 -0.41,-0.39 -0.7,-0.9 -0.84,-1.3l-0.62 0.4c0.1,0.4 0.54,0.97 1,1.35 1.14,0.99 2.25,0.82 2.89,0.05 0.6,-0.73 0.53,-1.46 -0.04,-2.47 -0.43,-0.84 -0.53,-1.3 -0.17,-1.77 0.28,-0.33 0.88,-0.51 1.57,0.04 0.42,0.38 0.62,0.81 0.71,1.04l0.6 -0.37c-0.11,-0.32 -0.37,-0.76 -0.86,-1.19z"/>
    <path class="fil7" d="M24505.02 -695.56c-0.94,-0.83 -2.04,-0.85 -2.72,-0.12 -0.6,0.69 -0.49,1.49 0.03,2.46 0.41,0.85 0.44,1.31 0.05,1.78 -0.49,0.46 -1.1,0.46 -1.74,-0.1 -0.43,-0.4 -0.68,-0.89 -0.79,-1.31l-0.65 0.33c0.14,0.43 0.46,1.01 0.94,1.43 1.11,1.01 2.24,0.9 2.87,0.15 0.66,-0.68 0.61,-1.43 0.08,-2.49 -0.42,-0.82 -0.5,-1.32 -0.11,-1.73 0.29,-0.34 0.9,-0.52 1.52,0.08 0.43,0.4 0.62,0.83 0.72,1.04l0.62 -0.32c-0.12,-0.32 -0.36,-0.74 -0.82,-1.2z"/>
    <path class="fil7" d="M24508.19 -688.01c-1.04,1.01 -2.39,1.38 -3.36,0.45 -0.92,-0.88 -0.62,-2.28 0.36,-3.28 0.97,-1 2.33,-1.41 3.31,-0.46 1.01,0.98 0.54,2.34 -0.31,3.29zm0.82 -3.75c-1.23,-1.17 -3.03,-1.09 -4.46,0.32 -1.36,1.39 -1.41,3.17 -0.22,4.34 1.18,1.14 2.97,1.25 4.48,-0.37 1.32,-1.33 1.46,-3.07 0.2,-4.29z"/>
    <polygon class="fil6" points="24495.77,-682.14 24495.19,-681.56 24494.58,-682.14 24495.19,-682.75 "/>
    <polygon class="fil6" points="24491.46,-681.87 24490.87,-681.26 24490.28,-681.87 24490.87,-682.45 "/>
    <polygon class="fil6" points="24491.03,-678.81 24490.52,-678.29 24489.99,-678.81 24490.52,-679.34 "/>
    <polygon class="fil6" points="24490.2,-677 24489.72,-676.51 24489.24,-677 24489.72,-677.48 "/>
    <polygon class="fil6" points="24488.25,-676.03 24487.77,-675.53 24487.28,-676.03 24487.77,-676.51 "/>
    <polygon class="fil6" points="24485.51,-675.3 24485.02,-674.81 24484.53,-675.3 24485.02,-675.79 "/>
    <path class="fil6" d="M24487.62 -671.92l-0.58 0.6c-0.35,0 -0.63,-0.26 -0.63,-0.6 0,-0.34 0.28,-0.61 0.63,-0.61l0.58 0.61z"/>
    <path class="fil6" d="M24487.77 -669.1l-0.59 0.58c-0.34,0 -0.62,-0.27 -0.62,-0.58 0,-0.32 0.28,-0.59 0.62,-0.59l0.59 0.59z"/>
    <polygon class="fil6" points="24477.68,-675.24 24477.29,-674.84 24476.88,-675.24 24477.29,-675.64 "/>
    <polygon class="fil6" points="24474.78,-675.24 24474.38,-674.84 24473.98,-675.24 24474.38,-675.64 "/>
    <polygon class="fil6" points="24475.78,-671.72 24475.38,-671.32 24474.98,-671.72 24475.38,-672.14 "/>
    <polygon class="fil6" points="24464.17,-666.73 24463.59,-666.14 24463,-666.73 24463.59,-667.33 "/>
    <polygon class="fil6" points="24463.59,-680.97 24463,-680.38 24462.41,-680.97 24463,-681.56 "/>
    <polygon class="fil6" points="24467.31,-685.42 24466.72,-684.82 24466.12,-685.42 24466.72,-686 "/>
    <polygon class="fil6" points="24462.85,-689.57 24462.25,-688.97 24461.67,-689.57 24462.25,-690.16 "/>
    <path class="fil6" d="M24458.54 -686.59c0,0.31 -0.24,0.59 -0.59,0.59l-0.58 -0.59 0.58 -0.6c0.35,0 0.59,0.27 0.59,0.6z"/>
    <polygon class="fil6" points="24460.71,-684.52 24460.34,-684.15 24459.96,-684.52 24460.34,-684.9 "/>
    <polygon class="fil6" points="24474.26,-700.55 24473.68,-699.94 24473.09,-700.55 24473.68,-701.13 "/>
    <polygon class="fil6" points="24478.87,-717.74 24478.28,-717.13 24477.68,-717.74 24478.28,-718.33 "/>
    <polygon class="fil6" points="24448.63,-697.12 24448.03,-696.54 24447.45,-697.12 24448.03,-697.72 "/>
    <polygon class="fil6" points="24443.58,-675.32 24443,-674.74 24442.4,-675.32 24443,-675.94 "/>
    <polygon class="fil6" points="24435.27,-678.6 24434.83,-678.16 24434.38,-678.6 24434.83,-679.04 "/>
    <polygon class="fil6" points="24435.58,-682.29 24435.13,-681.87 24434.68,-682.29 24435.13,-682.75 "/>
    <polygon class="fil6" points="24433.23,-685.49 24432.82,-685.08 24432.42,-685.49 24432.82,-685.88 "/>
    <polygon class="fil6" points="24428.45,-684.97 24427.86,-684.37 24427.27,-684.97 24427.86,-685.57 "/>
    <polygon class="fil6" points="24423.83,-682.81 24423.5,-682.48 24423.15,-682.81 24423.5,-683.15 "/>
    <polygon class="fil6" points="24424.29,-707.21 24423.71,-706.62 24423.11,-707.21 24423.71,-707.81 "/>
   </g>
  </g>
  <g id="_2277567715856">
   <rect class="fil0" x="1.08" y="7.14" width="943.78" height="943.78"/>
   <g>
    <path class="fil1" d="M2.24 696.15l-2.69 9.86c-0.29,1.05 0.49,2.08 1.58,2.08l104.01 0c1.3,0 2.47,-0.78 2.95,-1.96l39.71 -93.57c0.7,-1.63 2.29,-2.7 4.08,-2.7l207.73 0c1.59,0 3.03,0.97 3.63,2.45l37.63 91.95c0.95,2.33 3.21,3.85 5.72,3.85l106.3 0c1.05,0 1.75,-1.09 1.32,-2.06l-203.99 -453.78c-0.62,-1.38 -1.98,-2.27 -3.5,-2.27l-101.37 0c-1.28,0 -2.43,0.74 -2.95,1.9 -36.34,81.03 -69.07,154.1 -98.16,219.22 -0.19,0.41 -0.74,0.47 -1.63,0.14"/>
    <path class="fil1" d="M2.24 696.15c0.72,-0.05 1.46,-0.93 2.21,-2.64 32.42,-72.41 64.87,-144.8 97.32,-217.18 0.47,-1.07 0.74,-2.76 0.84,-5.07"/>
    <path class="fil1" d="M665.9 251.9c0,-1.08 -0.88,-1.96 -1.97,-1.96l-98.97 0c-1.09,0 -1.96,0.88 -1.96,1.96l0 454.03c0,1.09 0.87,1.97 1.96,1.97l98.97 0c1.09,0 1.97,-0.88 1.97,-1.97l0 -454.03z"/>
    <path class="fil1" d="M183.52 527.55c-0.39,0.95 0.31,2 1.34,2l141.36 0c1.03,0 1.73,-1.05 1.34,-2l-70.68 -170c-0.48,-1.21 -2.2,-1.21 -2.68,0l-70.68 170z"/>
    <path class="fil2" d="M2.24 696.15c0.72,-0.05 1.46,-0.93 2.21,-2.64 32.42,-72.41 64.87,-144.8 97.32,-217.18 0.47,-1.07 0.74,-2.76 0.84,-5.07 0.89,0.33 1.44,0.27 1.63,-0.14 29.09,-65.12 61.82,-138.19 98.16,-219.22 0.52,-1.16 1.67,-1.9 2.95,-1.9l101.37 0c1.52,0 2.88,0.89 3.5,2.27l203.99 453.78c0.43,0.97 -0.27,2.06 -1.32,2.06l-106.3 0c-2.51,0 -4.77,-1.52 -5.72,-3.85l-37.63 -91.95c-0.6,-1.48 -2.04,-2.45 -3.63,-2.45l-207.73 0c-1.79,0 -3.38,1.07 -4.08,2.7l-39.71 93.57c-0.48,1.18 -1.65,1.96 -2.95,1.96l-104.01 0c-1.09,0 -1.87,-1.03 -1.58,-2.08l2.69 -9.86zm181.28 -168.6c-0.39,0.95 0.31,2 1.34,2l141.36 0c1.03,0 1.73,-1.05 1.34,-2l-70.68 -170c-0.48,-1.21 -2.2,-1.21 -2.68,0l-70.68 170z"/>
    <path class="fil2" d="M665.9 705.93c0,1.09 -0.88,1.97 -1.97,1.97l-98.97 0c-1.09,0 -1.96,-0.88 -1.96,-1.97l0 -454.03c0,-1.08 0.87,-1.96 1.96,-1.96l98.97 0c1.09,0 1.97,0.88 1.97,1.96l0 454.03z"/>
    <g>
     <polygon class="fil4" points="665.9,427.8 946.46,427.8 946.46,251.9 665.9,251.9 "/>
     <polygon class="fil2" points="696.96,340.49 805.57,271.83 915.6,339.35 807,407.73 "/>
     <path class="fil5" d="M852.67 339.43c0,3.28 -0.32,6.49 -0.99,9.56 -0.71,3.62 -1.88,7.07 -3.4,10.3 -7.5,15.99 -23.72,27.1 -42.58,27.1 -25.94,0 -46.97,-21.03 -46.97,-46.96 0,-4.58 0.67,-8.99 1.9,-13.17 1,-3.51 2.42,-6.87 4.16,-10 8.12,-14.23 23.38,-23.81 40.91,-23.81 25.96,0 46.97,21.01 46.97,46.98z"/>
     <path class="fil6" d="M851.68 348.99c-0.71,3.62 -1.88,7.07 -3.4,10.3l-0.19 -0.16c-9.92,-12.08 -25.04,-21.7 -42.8,-27.66 -16.39,-5.52 -41.03,-5.27 -44.66,-5.21 1,-3.51 2.42,-6.87 4.16,-10 0,0 15.82,-1.76 42.78,5.28 26.65,6.94 41.49,24.09 44.11,27.45z"/>
     <path class="fil7" d="M768.41 324.58c-1.26,0.03 -1.98,-1.15 -2.01,-2.45 -0.08,-1.35 0.57,-2.59 1.88,-2.62 1.35,-0.05 2.01,1.24 2.04,2.45 0.03,1.41 -0.66,2.59 -1.91,2.62zm-0.08 -5.72c-1.66,0.03 -2.86,1.32 -2.79,3.3 0.03,1.9 1.24,3.09 2.84,3.07 1.58,-0.03 2.83,-1.21 2.8,-3.35 -0.06,-1.82 -1.22,-3.06 -2.85,-3.02z"/>
     <path class="fil7" d="M773.87 321.81l-0.83 -0.03 0.05 -2.24c0.13,-0.03 0.41,-0.08 0.78,-0.08 0.82,0 1.4,0.39 1.4,1.19 0,0.69 -0.54,1.16 -1.4,1.16zm1.93 1.59c-0.14,-0.65 -0.42,-1.06 -0.88,-1.24l0 -0.03c0.63,-0.21 1.16,-0.76 1.16,-1.59 0,-0.45 -0.17,-0.9 -0.49,-1.18 -0.36,-0.34 -0.93,-0.5 -1.76,-0.5 -0.55,0 -1.13,0.03 -1.54,0.08l-0.09 6.12 0.81 0 0.03 -2.66 0.77 0c0.72,0.02 1.03,0.35 1.24,1.2 0.14,0.8 0.27,1.32 0.37,1.48l0.84 0.05c-0.15,-0.26 -0.28,-0.88 -0.46,-1.73z"/>
     <path class="fil7" d="M778.73 324.63l-0.83 -0.08 0.24 -4.86c0.25,-0.05 0.56,-0.07 0.98,-0.05 1.69,0.07 2.44,1.05 2.38,2.49 -0.07,1.68 -1.07,2.58 -2.77,2.5zm2.83 -4.74c-0.53,-0.53 -1.31,-0.83 -2.44,-0.91 -0.66,-0.04 -1.24,0 -1.73,0.04l-0.31 6.11c0.39,0.07 0.9,0.1 1.43,0.12 1.22,0.08 2.18,-0.19 2.8,-0.75 0.58,-0.51 0.97,-1.34 1.02,-2.34 0.05,-1 -0.26,-1.72 -0.77,-2.27z"/>
     <polygon class="fil7" points="786.99,320.31 787.04,319.64 783.69,319.33 783.14,325.46 786.59,325.81 786.66,325.13 783.96,324.87 784.18,322.67 786.59,322.88 786.62,322.22 784.25,322.02 784.42,320.06 "/>
     <path class="fil7" d="M793.15 320.44l-1.52 2.78c-0.39,0.77 -0.7,1.39 -0.95,1.98l-0.03 0c-0.05,-0.65 -0.16,-1.36 -0.3,-2.14l-0.61 -3.11 -1.05 -0.13 -1.26 6.03 0.74 0.15 0.52 -2.63c0.21,-0.89 0.39,-1.93 0.52,-2.68 0.06,0.75 0.2,1.58 0.38,2.47l0.59 3.07 0.58 0.06 1.53 -2.82c0.41,-0.8 0.79,-1.51 1.11,-2.21l0.03 0c-0.15,0.76 -0.22,1.8 -0.32,2.67l-0.21 2.71 0.77 0.1 0.46 -6.17 -0.98 -0.13z"/>
     <path class="fil7" d="M800.25 327.61c-0.74,-0.17 -1.1,-0.82 -0.94,-1.48 0.15,-0.67 0.69,-0.93 1.07,-1.05 0.49,0.94 0.97,1.83 1.24,2.28 -0.37,0.29 -0.86,0.39 -1.37,0.25zm0.45 -4.34c0.11,-0.46 0.43,-0.79 0.97,-0.7 0.46,0.15 0.58,0.59 0.46,0.98 -0.1,0.47 -0.57,0.7 -1.26,0.91 -0.17,-0.37 -0.28,-0.75 -0.17,-1.19zm3.2 2.32l-0.69 -0.19c-0.31,0.73 -0.66,1.24 -1.05,1.58 -0.25,-0.51 -0.68,-1.31 -1.03,-1.99l0 -0.03c1.08,-0.25 1.57,-0.67 1.73,-1.28 0.19,-0.8 -0.28,-1.46 -1.02,-1.64 -1,-0.23 -1.69,0.38 -1.87,1.12 -0.14,0.44 -0.03,0.93 0.18,1.39l0 0.03c-0.8,0.21 -1.42,0.65 -1.64,1.47 -0.2,0.9 0.28,1.83 1.46,2.16 0.65,0.13 1.28,0.05 1.94,-0.3l0.39 0.74 0.94 0.23c-0.27,-0.47 -0.52,-0.9 -0.75,-1.31 0.59,-0.41 1.04,-1.1 1.41,-1.98z"/>
     <path class="fil7" d="M811.76 327.03c-0.27,0.79 -1,1.06 -1.9,0.76l-0.62 -0.3 0.79 -2.26c0.15,0 0.38,0.05 0.73,0.17 0.84,0.27 1.24,0.83 1,1.63zm0.66 -1.22c-0.25,-0.41 -0.74,-0.75 -1.49,-1.02 -0.61,-0.21 -1.1,-0.33 -1.48,-0.39l-1.94 5.79 0.77 0.28 0.75 -2.36 0.62 0.25c0.73,0.26 1.45,0.26 2,-0.02 0.39,-0.23 0.7,-0.59 0.86,-1.11 0.19,-0.53 0.15,-1 -0.09,-1.42z"/>
     <path class="fil7" d="M816.49 328.67c-0.28,0.65 -0.94,0.89 -1.74,0.6l-0.75 -0.28 0.79 -2.15c0.16,0.04 0.4,0.11 0.76,0.24 0.79,0.28 1.22,0.83 0.94,1.59zm0.7 -1.1c-0.22,-0.46 -0.66,-0.78 -1.46,-1.1 -0.54,-0.18 -1.06,-0.34 -1.48,-0.42l-2.18 5.72 0.75 0.3 0.94 -2.54 0.71 0.28c0.67,0.28 0.88,0.7 0.72,1.55 -0.09,0.8 -0.16,1.35 -0.13,1.53l0.79 0.3c-0.02,-0.27 0.07,-0.86 0.16,-1.76 0.08,-0.65 0,-1.16 -0.43,-1.49l0.02 -0.03c0.67,0.03 1.37,-0.31 1.63,-1.06 0.17,-0.44 0.17,-0.89 -0.04,-1.28z"/>
     <path class="fil7" d="M821.98 332.48c-0.59,1.26 -1.73,2.01 -2.88,1.5 -1.17,-0.52 -1.34,-1.85 -0.8,-3.06 0.56,-1.24 1.65,-2.11 2.88,-1.55 1.2,0.54 1.27,1.96 0.8,3.11zm-0.51 -3.7c-1.52,-0.67 -3.12,0 -3.95,1.8 -0.75,1.72 -0.21,3.34 1.27,3.99 1.42,0.65 3.06,0.15 3.92,-1.8 0.78,-1.68 0.34,-3.29 -1.24,-3.99z"/>
     <path class="fil7" d="M827.89 332.07c-1.82,-1 -3.57,-0.46 -4.48,1.16 -0.45,0.82 -0.58,1.72 -0.33,2.4 0.23,0.84 0.78,1.39 1.6,1.87 0.73,0.38 1.47,0.55 1.83,0.59l1.45 -2.59 -1.79 -1.01 -0.3 0.6 1.1 0.58 -0.9 1.63c-0.2,0 -0.57,-0.11 -1,-0.34 -1.28,-0.73 -1.66,-1.98 -0.89,-3.37 0.75,-1.36 2.05,-1.7 3.38,-0.97 0.54,0.3 0.85,0.61 1.04,0.89l0.5 -0.49c-0.15,-0.25 -0.58,-0.63 -1.21,-0.95z"/>
     <path class="fil7" d="M830.48 337.07l-0.68 -0.44 1.24 -1.88c0.11,0.02 0.37,0.18 0.72,0.38 0.69,0.47 0.97,1.1 0.55,1.76 -0.4,0.57 -1.11,0.69 -1.83,0.18zm2.53 0.15c0.26,-0.38 0.36,-0.82 0.26,-1.23 -0.12,-0.49 -0.51,-0.95 -1.23,-1.42 -0.47,-0.26 -0.96,-0.59 -1.36,-0.74l-3.34 5.12 0.66 0.41 1.47 -2.2 0.62 0.42c0.59,0.41 0.7,0.85 0.39,1.68 -0.27,0.74 -0.47,1.23 -0.47,1.44l0.67 0.45c0.03,-0.27 0.25,-0.86 0.57,-1.69 0.2,-0.61 0.23,-1.13 -0.1,-1.51l0 -0.03c0.67,0.17 1.39,0 1.86,-0.7z"/>
     <polygon class="fil7" points="837.31,339.29 837.71,338.74 835.06,336.76 831.35,341.64 834.09,343.74 834.47,343.22 832.38,341.6 833.72,339.82 835.6,341.29 836.02,340.73 834.09,339.29 835.31,337.74 "/>
     <path class="fil7" d="M840.31 340.73c-0.94,-0.73 -1.99,-0.71 -2.63,0 -0.54,0.66 -0.44,1.51 0.11,2.39 0.44,0.8 0.48,1.29 0.09,1.72 -0.39,0.46 -1.02,0.49 -1.69,-0.02 -0.39,-0.39 -0.67,-0.88 -0.8,-1.26l-0.61 0.38c0.1,0.39 0.53,0.95 0.98,1.32 1.1,0.95 2.17,0.79 2.79,0.04 0.58,-0.71 0.52,-1.41 -0.04,-2.39 -0.41,-0.82 -0.51,-1.27 -0.16,-1.72 0.27,-0.31 0.85,-0.49 1.52,0.04 0.41,0.37 0.6,0.78 0.69,1.01l0.57 -0.36c-0.1,-0.31 -0.35,-0.73 -0.82,-1.15z"/>
     <path class="fil7" d="M843.83 343.89c-0.91,-0.81 -1.98,-0.83 -2.63,-0.12 -0.58,0.66 -0.48,1.44 0.03,2.38 0.39,0.83 0.42,1.27 0.05,1.73 -0.48,0.44 -1.07,0.44 -1.7,-0.1 -0.41,-0.39 -0.66,-0.86 -0.76,-1.27l-0.62 0.32c0.12,0.41 0.44,0.98 0.9,1.39 1.08,0.97 2.18,0.87 2.78,0.15 0.64,-0.67 0.6,-1.39 0.08,-2.42 -0.4,-0.8 -0.48,-1.28 -0.11,-1.68 0.29,-0.33 0.88,-0.5 1.48,0.08 0.41,0.39 0.6,0.8 0.7,1.01l0.6 -0.31c-0.12,-0.31 -0.36,-0.72 -0.8,-1.16z"/>
     <path class="fil7" d="M846.9 351.2c-1,0.98 -2.31,1.34 -3.25,0.44 -0.89,-0.86 -0.6,-2.21 0.34,-3.19 0.94,-0.96 2.27,-1.35 3.22,-0.44 0.97,0.95 0.51,2.27 -0.31,3.19zm0.79 -3.63c-1.18,-1.14 -2.93,-1.06 -4.32,0.31 -1.31,1.34 -1.36,3.07 -0.21,4.2 1.15,1.1 2.88,1.21 4.34,-0.35 1.28,-1.3 1.42,-2.98 0.19,-4.16z"/>
     <polygon class="fil6" points="834.87,356.89 834.31,357.45 833.72,356.89 834.31,356.29 "/>
     <polygon class="fil6" points="830.69,357.15 830.12,357.74 829.55,357.15 830.12,356.59 "/>
     <polygon class="fil6" points="830.28,360.12 829.79,360.62 829.27,360.12 829.79,359.6 "/>
     <polygon class="fil6" points="829.47,361.87 829.01,362.34 828.55,361.87 829.01,361.4 "/>
     <polygon class="fil6" points="827.58,362.81 827.12,363.29 826.65,362.81 827.12,362.34 "/>
     <polygon class="fil6" points="824.93,363.52 824.46,363.99 823.98,363.52 824.46,363.04 "/>
     <path class="fil6" d="M826.97 366.79l-0.56 0.58c-0.34,0 -0.6,-0.25 -0.6,-0.58 0,-0.33 0.26,-0.59 0.6,-0.59l0.56 0.59z"/>
     <path class="fil6" d="M827.12 369.52l-0.57 0.57c-0.33,0 -0.6,-0.27 -0.6,-0.57 0,-0.31 0.27,-0.57 0.6,-0.57l0.57 0.57z"/>
     <polygon class="fil6" points="817.34,363.58 816.97,363.96 816.56,363.58 816.97,363.19 "/>
     <polygon class="fil6" points="814.53,363.58 814.15,363.96 813.76,363.58 814.15,363.19 "/>
     <polygon class="fil6" points="815.5,366.98 815.12,367.37 814.72,366.98 815.12,366.58 "/>
     <polygon class="fil6" points="804.26,371.82 803.69,372.39 803.12,371.82 803.69,371.24 "/>
     <polygon class="fil6" points="803.69,358.02 803.12,358.6 802.55,358.02 803.12,357.45 "/>
     <polygon class="fil6" points="807.29,353.71 806.72,354.29 806.15,353.71 806.72,353.14 "/>
     <polygon class="fil6" points="802.97,349.69 802.4,350.27 801.84,349.69 802.4,349.12 "/>
     <path class="fil6" d="M798.8 352.57c0,0.31 -0.23,0.57 -0.57,0.57l-0.56 -0.57 0.56 -0.58c0.34,0 0.57,0.27 0.57,0.58z"/>
     <polygon class="fil6" points="800.9,354.58 800.54,354.94 800.18,354.58 800.54,354.22 "/>
     <polygon class="fil6" points="814.03,339.05 813.47,339.64 812.9,339.05 813.47,338.49 "/>
     <polygon class="fil6" points="818.49,322.4 817.92,322.99 817.34,322.4 817.92,321.83 "/>
     <polygon class="fil6" points="789.2,342.37 788.62,342.94 788.06,342.37 788.62,341.79 "/>
     <polygon class="fil6" points="784.31,363.49 783.74,364.06 783.16,363.49 783.74,362.9 "/>
     <polygon class="fil6" points="776.26,360.32 775.83,360.74 775.4,360.32 775.83,359.89 "/>
     <polygon class="fil6" points="776.55,356.74 776.12,357.15 775.68,356.74 776.12,356.29 "/>
     <polygon class="fil6" points="774.28,353.64 773.89,354.04 773.5,353.64 773.89,353.26 "/>
     <polygon class="fil6" points="769.65,354.15 769.08,354.73 768.51,354.15 769.08,353.57 "/>
     <polygon class="fil6" points="765.17,356.24 764.86,356.56 764.51,356.24 764.86,355.91 "/>
     <polygon class="fil6" points="765.62,332.6 765.05,333.17 764.48,332.6 765.05,332.02 "/>
    </g>
   </g>
  </g>
  <g id="_2277567716768">
   <g>
    <path class="fil1" d="M22959.45 4956.52c-12.88,-95.02 -78.42,-157.82 -174.71,-165.31 -70.39,-5.47 -135.85,10.78 -186.36,61.07 -0.35,0.32 -0.91,0.11 -0.91,-0.38l0 -54.25c0,-0.43 -0.35,-0.78 -0.76,-0.78l-134.07 0c-0.78,0 -1.4,0.62 -1.4,1.4l0 483.99c0,1.45 1.18,2.64 2.64,2.64l137.98 0c1.08,0 1.97,-0.89 1.99,-1.97 0.11,-25.03 0.11,-104 0.03,-236.88 -0.03,-77 36.14,-133.11 118.82,-133.19 71.15,-0.08 97.45,50.56 97.69,114.32 0.11,32.15 0.08,112.52 -0.05,241.04"/>
    <path class="fil1" d="M22820.34 5268.22l-3.72 13.66c-0.4,1.46 0.68,2.89 2.18,2.89l144.16 0c1.8,0 3.42,-1.08 4.09,-2.73l55.03 -129.68c0.97,-2.26 3.19,-3.74 5.66,-3.74l287.91 0c2.21,0 4.2,1.34 5.04,3.39l52.14 127.45c1.32,3.23 4.45,5.33 7.93,5.33l147.33 0c1.46,0 2.43,-1.51 1.83,-2.85l-282.73 -628.93c-0.86,-1.91 -2.74,-3.15 -4.85,-3.15l-140.48 0c-1.78,0 -3.37,1.02 -4.1,2.64 -50.37,112.3 -95.73,213.58 -136.04,303.83 -0.27,0.57 -1.03,0.65 -2.27,0.19"/>
    <path class="fil1" d="M22820.34 5268.22c1,-0.08 2.02,-1.29 3.07,-3.67 44.93,-100.36 89.91,-200.69 134.89,-301 0.64,-1.48 1.02,-3.82 1.15,-7.03"/>
    <path class="fil1" d="M23740.16 4652.5c0,-1.51 -1.22,-2.72 -2.73,-2.72l-137.17 0c-1.51,0 -2.72,1.21 -2.72,2.72l0 629.27c0,1.51 1.21,2.73 2.72,2.73l137.17 0c1.51,0 2.73,-1.22 2.73,-2.73l0 -629.27z"/>
    <path class="fil1" d="M20106.89 5202.38c1.59,22.34 -0.4,44.68 -6.01,67 -9.4,37.43 -32.07,62.39 -68.02,74.86 -12.4,4.29 -22.61,6.96 -30.64,7.95 -71.79,8.98 -153.61,-7.41 -211.88,-52.66 -0.67,-0.51 -1.64,-0.32 -2.05,0.43l-54.95 99.31c-0.72,1.32 -0.37,2.94 0.84,3.83 74.6,54.82 178.95,69.4 269.31,64.76 95.4,-4.93 181.07,-40.07 221.58,-130.54 15.33,-34.28 24.12,-80.26 24.22,-117.48 0.25,-115.15 0.27,-255.34 0.08,-420.57 0,-1.32 -1.05,-2.4 -2.37,-2.4l-131.75 0c-0.46,0 -0.84,0.38 -0.84,0.84l0 58.85c0,0.95 -1.18,1.38 -1.78,0.65 -41.15,-48.94 -98.23,-67.16 -162.37,-67.13 -132.38,0.03 -241.49,91.36 -244.38,228.37 -2.96,140.62 102.06,240.09 239.67,241.9 59.93,0.78 117.28,-13.88 159.75,-58.56 0.57,-0.57 1.54,-0.22 1.59,0.59z"/>
    <path class="fil1" d="M20344.7 5040.9c0,152.72 122.48,252.79 269.22,250.63 0.16,0 0.3,0 0.46,0 0.16,0 0.3,0 0.46,0 146.74,2.13 269.2,-97.96 269.17,-250.69 0,-152.72 -122.46,-252.78 -269.23,-250.63 -0.13,0 -0.29,0 -0.45,0 -0.14,0 -0.3,0 -0.46,0 -146.74,-2.13 -269.2,97.94 -269.17,250.69z"/>
    <path class="fil1" d="M21866.08 5131.34c-25.03,24.01 -54.33,38.62 -87.88,43.85 -73.41,11.43 -154.04,-12.56 -174.07,-92.9 -0.21,-0.89 0.43,-1.75 1.35,-1.75l367.94 0c0.68,0 1.24,-0.48 1.35,-1.16 4.66,-32.74 3.58,-65.16 -3.26,-97.31 -29.48,-138.36 -151.7,-204.69 -285.61,-189.92 -141.43,15.58 -237.08,130.98 -224.76,272.65 12.15,139.82 125.77,219.99 259.01,226.41 83.43,3.98 163.42,-14.72 221.77,-76.62 0.86,-0.92 0.89,-2.35 0.02,-3.26l-74.32 -79.96c-0.41,-0.43 -1.11,-0.43 -1.54,-0.03z"/>
    <path class="fil1" d="M22209.64 4858.58l0 -60.31c0,-0.78 -0.62,-1.4 -1.41,-1.4l-132.88 0.03c-0.98,0 -1.76,0.78 -1.76,1.75l0 483.93c0,1.27 1.03,2.32 2.29,2.32l137.91 0c1.42,0 2.58,-1.16 2.58,-2.59 -0.02,-126.52 -0.02,-201.47 0,-224.81 0,-48.81 12.72,-97.5 58.86,-122.3 31.07,-16.68 66.78,-17.97 102.03,-14.39 0.7,0.08 1.32,-0.48 1.32,-1.21l0 -127.47c0,-0.89 -0.73,-1.62 -1.62,-1.65 -64.05,-1.61 -125.36,17.76 -166.38,68.43 -0.33,0.4 -0.94,0.19 -0.94,-0.33z"/>
    <path class="fil1" d="M21316.01 4796.9c-0.4,0 -0.78,0.24 -0.94,0.62l-139.14 328c-0.38,0.84 -1.56,0.84 -1.91,0l-134.16 -328c-0.16,-0.41 -0.54,-0.65 -0.97,-0.65l-145.28 0c-0.73,0 -1.22,0.75 -0.95,1.43l205.3 485.98c0.17,0.38 0.54,0.62 0.95,0.62l145.98 0c0.41,0 0.78,-0.24 0.95,-0.62l206.19 -485.95c0.27,-0.68 -0.22,-1.43 -0.95,-1.43l-135.07 0z"/>
    <path class="fil1" d="M23071.59 5034.54c-0.54,1.32 0.43,2.77 1.86,2.77l195.92 0c1.43,0 2.4,-1.45 1.86,-2.77l-97.96 -235.62c-0.67,-1.67 -3.04,-1.67 -3.72,0l-97.96 235.62z"/>
    <path class="fil1" d="M19850.55 5024.97c-0.14,73.63 58.34,118.79 128.92,118.9 70.61,0.14 129.23,-44.81 129.36,-118.47 0.14,-73.65 -58.34,-118.79 -128.95,-118.9 -70.58,-0.13 -129.22,44.82 -129.33,118.47z"/>
    <path class="fil1" d="M20489.01 5040.79c-0.03,74.62 47.14,134.45 125.34,134.48 78.18,0.03 125.4,-59.75 125.43,-134.37 0.02,-74.62 -47.16,-134.45 -125.35,-134.48 -78.18,-0.03 -125.39,59.75 -125.42,134.37z"/>
    <path class="fil1" d="M21722.33 4997.83c31.75,0 71.18,-0.02 118.26,-0.08 1.37,0 2.4,-1.27 2.1,-2.61 -13.29,-61.02 -57.22,-97.61 -120.36,-97.61 -63.14,0 -107.07,36.62 -120.35,97.63 -0.3,1.35 0.72,2.62 2.1,2.62 47.08,0.03 86.51,0.05 118.25,0.05z"/>
    <path class="fil2" d="M22820.34 5268.22c1,-0.08 2.02,-1.29 3.07,-3.67 44.93,-100.36 89.91,-200.69 134.89,-301 0.64,-1.48 1.02,-3.82 1.15,-7.03 1.24,0.46 2,0.38 2.27,-0.19 40.31,-90.25 85.67,-191.53 136.04,-303.83 0.73,-1.62 2.32,-2.64 4.1,-2.64l140.48 0c2.11,0 3.99,1.24 4.85,3.15l282.73 628.93c0.6,1.34 -0.37,2.85 -1.83,2.85l-147.33 0c-3.48,0 -6.61,-2.1 -7.93,-5.33l-52.14 -127.45c-0.84,-2.05 -2.83,-3.39 -5.04,-3.39l-287.91 0c-2.47,0 -4.69,1.48 -5.66,3.74l-55.03 129.68c-0.67,1.65 -2.29,2.73 -4.09,2.73l-144.16 0c-1.5,0 -2.58,-1.43 -2.18,-2.89l3.72 -13.66zm251.25 -233.68c-0.54,1.32 0.43,2.77 1.86,2.77l195.92 0c1.43,0 2.4,-1.45 1.86,-2.77l-97.96 -235.62c-0.67,-1.67 -3.04,-1.67 -3.72,0l-97.96 235.62z"/>
    <path class="fil2" d="M23740.16 5281.77c0,1.51 -1.22,2.73 -2.73,2.73l-137.17 0c-1.51,0 -2.72,-1.22 -2.72,-2.73l0 -629.27c0,-1.51 1.21,-2.72 2.72,-2.72l137.17 0c1.51,0 2.73,1.21 2.73,2.72l0 629.27z"/>
    <path class="fil3" d="M20106.89 5202.38c-0.05,-0.81 -1.02,-1.16 -1.59,-0.59 -42.47,44.68 -99.82,59.34 -159.75,58.56 -137.61,-1.81 -242.63,-101.28 -239.67,-241.9 2.89,-137.01 112,-228.34 244.38,-228.37 64.14,-0.03 121.22,18.19 162.37,67.13 0.6,0.73 1.78,0.3 1.78,-0.65l0 -58.85c0,-0.46 0.38,-0.84 0.84,-0.84l131.75 0c1.32,0 2.37,1.08 2.37,2.4 0.19,165.23 0.17,305.42 -0.08,420.57 -0.1,37.22 -8.89,83.2 -24.22,117.48 -40.51,90.47 -126.18,125.61 -221.58,130.54 -90.36,4.64 -194.71,-9.94 -269.31,-64.76 -1.21,-0.89 -1.56,-2.51 -0.84,-3.83l54.95 -99.31c0.41,-0.75 1.38,-0.94 2.05,-0.43 58.27,45.25 140.09,61.64 211.88,52.66 8.03,-0.99 18.24,-3.66 30.64,-7.95 35.95,-12.47 58.62,-37.43 68.02,-74.86 5.61,-22.32 7.6,-44.66 6.01,-67zm-256.34 -177.41c-0.14,73.63 58.34,118.79 128.92,118.9 70.61,0.14 129.23,-44.81 129.36,-118.47 0.14,-73.65 -58.34,-118.79 -128.95,-118.9 -70.58,-0.13 -129.22,44.82 -129.33,118.47z"/>
    <path class="fil3" d="M20614.33 4790.21c0.16,0 0.32,0 0.45,0 146.77,-2.15 269.23,97.91 269.23,250.63 0.03,152.73 -122.43,252.82 -269.17,250.69 -0.16,0 -0.3,0 -0.46,0 -0.16,0 -0.3,0 -0.46,0 -146.74,2.16 -269.22,-97.91 -269.22,-250.63 -0.03,-152.75 122.43,-252.82 269.17,-250.69 0.16,0 0.32,0 0.46,0zm-125.32 250.58c-0.03,74.62 47.14,134.45 125.34,134.48 78.18,0.03 125.4,-59.75 125.43,-134.37 0.02,-74.62 -47.16,-134.45 -125.35,-134.48 -78.18,-0.03 -125.39,59.75 -125.42,134.37z"/>
    <path class="fil3" d="M21866.08 5131.34c0.43,-0.4 1.13,-0.4 1.54,0.03l74.32 79.96c0.87,0.91 0.84,2.34 -0.02,3.26 -58.35,61.9 -138.34,80.6 -221.77,76.62 -133.24,-6.42 -246.86,-86.59 -259.01,-226.41 -12.32,-141.67 83.33,-257.07 224.76,-272.65 133.91,-14.77 256.13,51.56 285.61,189.92 6.84,32.15 7.92,64.57 3.26,97.31 -0.11,0.68 -0.67,1.16 -1.35,1.16l-367.94 0c-0.92,0 -1.56,0.86 -1.35,1.75 20.03,80.34 100.66,104.33 174.07,92.9 33.55,-5.23 62.85,-19.84 87.88,-43.85zm-143.75 -133.51c31.75,0 71.18,-0.02 118.26,-0.08 1.37,0 2.4,-1.27 2.1,-2.61 -13.29,-61.02 -57.22,-97.61 -120.36,-97.61 -63.14,0 -107.07,36.62 -120.35,97.63 -0.3,1.35 0.72,2.62 2.1,2.62 47.08,0.03 86.51,0.05 118.25,0.05z"/>
    <path class="fil3" d="M22209.64 4858.58c0,0.52 0.61,0.73 0.94,0.33 41.02,-50.67 102.33,-70.04 166.38,-68.43 0.89,0.03 1.62,0.76 1.62,1.65l0 127.47c0,0.73 -0.62,1.29 -1.32,1.21 -35.25,-3.58 -70.96,-2.29 -102.03,14.39 -46.14,24.8 -58.86,73.49 -58.86,122.3 -0.02,23.34 -0.02,98.29 0,224.81 0,1.43 -1.16,2.59 -2.58,2.59l-137.91 0c-1.26,0 -2.29,-1.05 -2.29,-2.32l0 -483.93c0,-0.97 0.78,-1.75 1.76,-1.75l132.88 -0.03c0.79,0 1.41,0.62 1.41,1.4l0 60.31z"/>
    <path class="fil3" d="M22959.45 4956.52c-0.13,3.21 -0.51,5.55 -1.15,7.03 -44.98,100.31 -89.96,200.64 -134.89,301 -1.05,2.38 -2.07,3.59 -3.07,3.67 0.13,-128.52 0.16,-208.89 0.05,-241.04 -0.24,-63.76 -26.54,-114.4 -97.69,-114.32 -82.68,0.08 -118.85,56.19 -118.82,133.19 0.08,132.88 0.08,211.85 -0.03,236.88 -0.02,1.08 -0.91,1.97 -1.99,1.97l-137.98 0c-1.46,0 -2.64,-1.19 -2.64,-2.64l0 -483.99c0,-0.78 0.62,-1.4 1.4,-1.4l134.07 0c0.41,0 0.76,0.35 0.76,0.78l0 54.25c0,0.49 0.56,0.7 0.91,0.38 50.51,-50.29 115.97,-66.54 186.36,-61.07 96.29,7.49 161.83,70.29 174.71,165.31z"/>
    <path class="fil3" d="M21316.01 4796.9l135.07 0c0.73,0 1.22,0.75 0.95,1.43l-206.19 485.95c-0.17,0.38 -0.54,0.62 -0.95,0.62l-145.98 0c-0.41,0 -0.78,-0.24 -0.95,-0.62l-205.3 -485.98c-0.27,-0.68 0.22,-1.43 0.95,-1.43l145.28 0c0.43,0 0.81,0.24 0.97,0.65l134.16 328c0.35,0.84 1.53,0.84 1.91,0l139.14 -328c0.16,-0.38 0.54,-0.62 0.94,-0.62z"/>
    <g>
     <polygon class="fil4" points="23740.16,4896.29 24129.01,4896.29 24129.01,4652.5 23740.16,4652.5 "/>
     <polygon class="fil2" points="23783.21,4775.28 23933.74,4680.12 24086.24,4773.7 23935.72,4868.47 "/>
     <path class="fil5" d="M23999.02 4773.81c0,4.55 -0.44,8.99 -1.37,13.25 -0.99,5.02 -2.61,9.8 -4.71,14.27 -10.4,22.16 -32.89,37.56 -59.02,37.56 -35.95,0 -65.1,-29.14 -65.1,-65.08 0,-6.35 0.93,-12.46 2.64,-18.26 1.38,-4.85 3.35,-9.52 5.76,-13.85 11.26,-19.73 32.4,-33 56.7,-33 35.97,0 65.1,29.12 65.1,65.11z"/>
     <path class="fil6" d="M23997.65 4787.06c-0.99,5.02 -2.61,9.8 -4.71,14.27l-0.27 -0.22c-13.75,-16.74 -34.7,-30.07 -59.32,-38.33 -22.72,-7.66 -56.87,-7.31 -61.89,-7.23 1.38,-4.85 3.35,-9.52 5.76,-13.85 0,0 21.92,-2.45 59.29,7.31 36.94,9.62 57.51,33.39 61.14,38.05z"/>
     <path class="fil7" d="M23882.24 4753.23c-1.75,0.04 -2.75,-1.6 -2.79,-3.39 -0.11,-1.88 0.79,-3.6 2.61,-3.64 1.87,-0.07 2.79,1.71 2.83,3.39 0.03,1.95 -0.92,3.6 -2.65,3.64zm-0.12 -7.93c-2.3,0.04 -3.96,1.84 -3.86,4.58 0.04,2.63 1.71,4.28 3.94,4.24 2.19,-0.04 3.92,-1.66 3.88,-4.63 -0.09,-2.53 -1.69,-4.25 -3.96,-4.19z"/>
     <path class="fil7" d="M23889.8 4749.38l-1.15 -0.04 0.07 -3.1c0.19,-0.04 0.57,-0.11 1.08,-0.11 1.14,0 1.95,0.54 1.95,1.64 0,0.96 -0.76,1.61 -1.95,1.61zm2.68 2.22c-0.19,-0.9 -0.58,-1.47 -1.23,-1.72l0 -0.04c0.89,-0.3 1.62,-1.07 1.62,-2.21 0,-0.62 -0.24,-1.25 -0.68,-1.63 -0.5,-0.48 -1.28,-0.7 -2.44,-0.7 -0.77,0 -1.56,0.04 -2.14,0.12l-0.12 8.47 1.12 0 0.04 -3.69 1.07 0c1,0.04 1.43,0.5 1.72,1.67 0.2,1.1 0.38,1.82 0.51,2.05l1.17 0.06c-0.21,-0.35 -0.4,-1.21 -0.64,-2.38z"/>
     <path class="fil7" d="M23896.54 4753.3l-1.14 -0.11 0.33 -6.75c0.34,-0.06 0.77,-0.09 1.36,-0.06 2.33,0.1 3.38,1.45 3.3,3.46 -0.11,2.32 -1.49,3.57 -3.85,3.46zm3.93 -6.57c-0.74,-0.73 -1.82,-1.15 -3.38,-1.27 -0.92,-0.04 -1.73,0 -2.4,0.06l-0.43 8.46c0.54,0.1 1.24,0.14 1.97,0.18 1.7,0.11 3.03,-0.27 3.88,-1.05 0.82,-0.7 1.36,-1.85 1.42,-3.23 0.07,-1.39 -0.35,-2.4 -1.06,-3.15z"/>
     <polygon class="fil7" points="23907.98,4747.3 23908.06,4746.38 23903.42,4745.96 23902.65,4754.45 23907.43,4754.94 23907.54,4753.98 23903.79,4753.63 23904.1,4750.58 23907.43,4750.87 23907.47,4749.96 23904.19,4749.67 23904.43,4746.96 "/>
     <path class="fil7" d="M23916.53 4747.48l-2.11 3.86c-0.54,1.07 -0.96,1.93 -1.32,2.74l-0.04 0c-0.07,-0.89 -0.22,-1.88 -0.42,-2.96l-0.84 -4.31 -1.45 -0.18 -1.75 8.36 1.02 0.2 0.73 -3.65c0.28,-1.23 0.53,-2.66 0.72,-3.71 0.08,1.05 0.27,2.19 0.53,3.43l0.8 4.26 0.81 0.07 2.13 -3.9c0.57,-1.11 1.08,-2.1 1.53,-3.07l0.04 0c-0.21,1.05 -0.31,2.5 -0.43,3.7l-0.3 3.76 1.06 0.14 0.65 -8.55 -1.36 -0.19z"/>
     <path class="fil7" d="M23926.37 4757.43c-1.03,-0.24 -1.53,-1.14 -1.31,-2.06 0.21,-0.92 0.96,-1.29 1.49,-1.45 0.67,1.31 1.34,2.54 1.71,3.16 -0.5,0.4 -1.18,0.53 -1.89,0.35zm0.61 -6.02c0.16,-0.64 0.61,-1.1 1.35,-0.97 0.64,0.22 0.8,0.82 0.64,1.36 -0.13,0.66 -0.79,0.97 -1.75,1.26 -0.24,-0.51 -0.39,-1.04 -0.24,-1.65zm4.45 3.21l-0.96 -0.25c-0.43,1 -0.91,1.71 -1.45,2.18 -0.35,-0.71 -0.95,-1.82 -1.43,-2.76l0 -0.04c1.49,-0.34 2.17,-0.93 2.39,-1.77 0.27,-1.11 -0.38,-2.02 -1.41,-2.27 -1.39,-0.33 -2.34,0.53 -2.59,1.55 -0.19,0.61 -0.04,1.29 0.25,1.93l0 0.04c-1.11,0.28 -1.97,0.89 -2.28,2.03 -0.27,1.25 0.39,2.54 2.03,2.99 0.9,0.19 1.78,0.08 2.69,-0.41l0.53 1.02 1.31 0.33c-0.37,-0.66 -0.71,-1.25 -1.04,-1.82 0.81,-0.57 1.44,-1.53 1.96,-2.75z"/>
     <path class="fil7" d="M23942.33 4756.62c-0.39,1.1 -1.4,1.47 -2.65,1.06l-0.85 -0.41 1.09 -3.15c0.21,0 0.53,0.08 1.01,0.25 1.17,0.36 1.73,1.15 1.4,2.25zm0.91 -1.68c-0.35,-0.57 -1.03,-1.05 -2.07,-1.43 -0.85,-0.28 -1.53,-0.45 -2.05,-0.54l-2.69 8.03 1.07 0.39 1.04 -3.27 0.85 0.35c1.01,0.35 2.01,0.35 2.78,-0.03 0.54,-0.32 0.97,-0.83 1.19,-1.54 0.27,-0.74 0.21,-1.38 -0.12,-1.96z"/>
     <path class="fil7" d="M23948.88 4758.9c-0.39,0.9 -1.31,1.23 -2.41,0.82l-1.05 -0.39 1.1 -2.97c0.22,0.05 0.55,0.15 1.05,0.34 1.1,0.38 1.7,1.14 1.31,2.2zm0.97 -1.53c-0.32,-0.64 -0.92,-1.08 -2.03,-1.53 -0.75,-0.25 -1.47,-0.47 -2.05,-0.58l-3.02 7.93 1.04 0.41 1.3 -3.51 0.99 0.39c0.92,0.38 1.22,0.96 0.99,2.14 -0.12,1.11 -0.22,1.88 -0.18,2.13l1.1 0.4c-0.03,-0.37 0.1,-1.18 0.22,-2.42 0.11,-0.91 0,-1.62 -0.6,-2.07l0.04 -0.04c0.92,0.04 1.88,-0.43 2.25,-1.47 0.24,-0.62 0.24,-1.25 -0.05,-1.78z"/>
     <path class="fil7" d="M23956.48 4764.17c-0.82,1.75 -2.4,2.8 -3.98,2.09 -1.63,-0.72 -1.86,-2.58 -1.11,-4.25 0.78,-1.72 2.29,-2.93 3.98,-2.14 1.67,0.75 1.76,2.71 1.11,4.3zm-0.7 -5.13c-2.1,-0.92 -4.32,0 -5.48,2.5 -1.03,2.38 -0.29,4.63 1.76,5.54 1.97,0.89 4.25,0.2 5.43,-2.5 1.09,-2.33 0.48,-4.57 -1.71,-5.54z"/>
     <path class="fil7" d="M23964.67 4763.6c-2.52,-1.38 -4.94,-0.63 -6.2,1.61 -0.63,1.15 -0.81,2.39 -0.46,3.34 0.32,1.16 1.08,1.92 2.22,2.58 1.01,0.53 2.03,0.77 2.54,0.82l2 -3.59 -2.47 -1.39 -0.43 0.82 1.54 0.81 -1.26 2.25c-0.28,0 -0.78,-0.14 -1.38,-0.47 -1.78,-1.01 -2.3,-2.74 -1.23,-4.66 1.04,-1.89 2.83,-2.37 4.68,-1.36 0.75,0.42 1.18,0.85 1.44,1.25l0.7 -0.68c-0.22,-0.35 -0.82,-0.88 -1.69,-1.33z"/>
     <path class="fil7" d="M23968.26 4770.54l-0.94 -0.61 1.73 -2.61c0.15,0.03 0.5,0.25 0.99,0.53 0.96,0.66 1.34,1.52 0.76,2.44 -0.56,0.79 -1.54,0.95 -2.54,0.25zm3.51 0.21c0.36,-0.53 0.5,-1.14 0.36,-1.71 -0.17,-0.68 -0.71,-1.32 -1.71,-1.96 -0.64,-0.37 -1.32,-0.82 -1.88,-1.03l-4.63 7.09 0.92 0.57 2.04 -3.04 0.86 0.57c0.81,0.57 0.97,1.19 0.53,2.33 -0.37,1.03 -0.65,1.71 -0.65,2l0.93 0.62c0.05,-0.38 0.35,-1.19 0.79,-2.34 0.27,-0.85 0.31,-1.57 -0.13,-2.09l0 -0.05c0.93,0.24 1.92,0 2.57,-0.96z"/>
     <polygon class="fil7" points="23977.72,4773.61 23978.29,4772.86 23974.61,4770.1 23969.47,4776.88 23973.27,4779.79 23973.8,4779.07 23970.9,4776.82 23972.76,4774.35 23975.36,4776.39 23975.95,4775.61 23973.27,4773.61 23974.96,4771.46 "/>
     <path class="fil7" d="M23981.88 4775.61c-1.29,-1.01 -2.74,-0.98 -3.63,0 -0.76,0.92 -0.61,2.09 0.15,3.31 0.6,1.11 0.67,1.78 0.12,2.39 -0.54,0.64 -1.42,0.68 -2.34,-0.03 -0.54,-0.54 -0.93,-1.21 -1.11,-1.75l-0.85 0.54c0.15,0.53 0.74,1.3 1.36,1.81 1.52,1.33 3.01,1.1 3.87,0.07 0.81,-0.99 0.72,-1.96 -0.06,-3.32 -0.56,-1.14 -0.71,-1.75 -0.22,-2.38 0.37,-0.44 1.18,-0.68 2.1,0.05 0.57,0.52 0.84,1.09 0.96,1.4l0.8 -0.5c-0.14,-0.42 -0.49,-1.01 -1.15,-1.59z"/>
     <path class="fil7" d="M23986.77 4779.99c-1.27,-1.12 -2.74,-1.15 -3.65,-0.17 -0.8,0.92 -0.66,2 0.04,3.31 0.54,1.14 0.58,1.76 0.07,2.39 -0.66,0.61 -1.49,0.61 -2.35,-0.14 -0.57,-0.53 -0.91,-1.19 -1.06,-1.76l-0.86 0.45c0.18,0.57 0.62,1.35 1.25,1.92 1.49,1.35 3.02,1.21 3.86,0.2 0.88,-0.92 0.82,-1.92 0.11,-3.35 -0.56,-1.1 -0.68,-1.77 -0.15,-2.32 0.39,-0.45 1.21,-0.7 2.05,0.11 0.56,0.53 0.83,1.11 0.96,1.4l0.83 -0.43c-0.16,-0.44 -0.49,-1 -1.1,-1.61z"/>
     <path class="fil7" d="M23991.02 4790.12c-1.39,1.36 -3.2,1.85 -4.5,0.61 -1.24,-1.18 -0.83,-3.07 0.47,-4.41 1.31,-1.34 3.14,-1.89 4.46,-0.62 1.35,1.31 0.71,3.15 -0.43,4.42zm1.1 -5.03c-1.64,-1.57 -4.06,-1.47 -5.99,0.43 -1.81,1.86 -1.89,4.25 -0.29,5.83 1.59,1.52 3.99,1.67 6.02,-0.5 1.77,-1.79 1.96,-4.13 0.26,-5.76z"/>
     <polygon class="fil6" points="23974.35,4798 23973.57,4798.78 23972.76,4798 23973.57,4797.18 "/>
     <polygon class="fil6" points="23968.56,4798.37 23967.77,4799.18 23966.98,4798.37 23967.77,4797.59 "/>
     <polygon class="fil6" points="23967.98,4802.48 23967.3,4803.17 23966.59,4802.48 23967.3,4801.76 "/>
     <polygon class="fil6" points="23966.87,4804.91 23966.22,4805.56 23965.58,4804.91 23966.22,4804.26 "/>
     <polygon class="fil6" points="23964.25,4806.21 23963.6,4806.88 23962.96,4806.21 23963.6,4805.56 "/>
     <polygon class="fil6" points="23960.58,4807.19 23959.92,4807.85 23959.25,4807.19 23959.92,4806.53 "/>
     <path class="fil6" d="M23963.41 4811.73l-0.79 0.8c-0.47,0 -0.83,-0.35 -0.83,-0.8 0,-0.46 0.36,-0.82 0.83,-0.82l0.79 0.82z"/>
     <path class="fil6" d="M23963.6 4815.51l-0.78 0.79c-0.47,0 -0.83,-0.37 -0.83,-0.79 0,-0.43 0.36,-0.79 0.83,-0.79l0.78 0.79z"/>
     <polygon class="fil6" points="23950.06,4807.27 23949.53,4807.8 23948.98,4807.27 23949.53,4806.74 "/>
     <polygon class="fil6" points="23946.16,4807.27 23945.63,4807.8 23945.09,4807.27 23945.63,4806.74 "/>
     <polygon class="fil6" points="23947.51,4811.99 23946.97,4812.53 23946.43,4811.99 23946.97,4811.44 "/>
     <polygon class="fil6" points="23931.92,4818.69 23931.14,4819.49 23930.35,4818.69 23931.14,4817.89 "/>
     <polygon class="fil6" points="23931.14,4799.58 23930.35,4800.37 23929.56,4799.58 23930.35,4798.78 "/>
     <polygon class="fil6" points="23936.13,4793.61 23935.34,4794.41 23934.54,4793.61 23935.34,4792.81 "/>
     <polygon class="fil6" points="23930.14,4788.03 23929.34,4788.84 23928.57,4788.03 23929.34,4787.23 "/>
     <path class="fil6" d="M23924.36 4792.02c0,0.42 -0.32,0.79 -0.8,0.79l-0.77 -0.79 0.77 -0.8c0.48,0 0.8,0.37 0.8,0.8z"/>
     <polygon class="fil6" points="23927.27,4794.81 23926.77,4795.31 23926.26,4794.81 23926.77,4794.3 "/>
     <polygon class="fil6" points="23945.46,4773.28 23944.69,4774.1 23943.9,4773.28 23944.69,4772.51 "/>
     <polygon class="fil6" points="23951.65,4750.2 23950.86,4751.02 23950.06,4750.2 23950.86,4749.41 "/>
     <polygon class="fil6" points="23911.05,4777.88 23910.25,4778.67 23909.47,4777.88 23910.25,4777.08 "/>
     <polygon class="fil6" points="23904.27,4807.16 23903.49,4807.95 23902.69,4807.16 23903.49,4806.33 "/>
     <polygon class="fil6" points="23893.12,4802.76 23892.52,4803.34 23891.92,4802.76 23892.52,4802.17 "/>
     <polygon class="fil6" points="23893.52,4797.8 23892.93,4798.37 23892.31,4797.8 23892.93,4797.18 "/>
     <polygon class="fil6" points="23890.37,4793.51 23889.83,4794.06 23889.29,4793.51 23889.83,4792.98 "/>
     <polygon class="fil6" points="23883.95,4794.2 23883.16,4795.01 23882.37,4794.2 23883.16,4793.4 "/>
     <polygon class="fil6" points="23877.75,4797.11 23877.31,4797.54 23876.84,4797.11 23877.31,4796.65 "/>
     <polygon class="fil6" points="23878.37,4764.34 23877.59,4765.13 23876.79,4764.34 23877.59,4763.54 "/>
    </g>
   </g>
   <rect class="fil0" x="19705.87" y="4656.56" width="4417.44" height="811.32"/>
  </g>
 </g>
</svg>
