<?xml version="1.0" encoding="UTF-8"?>
<!DOCTYPE svg PUBLIC "-//W3C//DTD SVG 1.1//EN" "http://www.w3.org/Graphics/SVG/1.1/DTD/svg11.dtd">
<!-- Creator: CorelDRAW 2020 (64 Bit) -->
<svg xmlns="http://www.w3.org/2000/svg" xml:space="preserve" width="9.448mm" height="9.4377mm" version="1.1" style="shape-rendering:geometricPrecision; text-rendering:geometricPrecision; image-rendering:optimizeQuality; fill-rule:evenodd; clip-rule:evenodd"
viewBox="0 0 102.52 102.41"
 xmlns:xlink="http://www.w3.org/1999/xlink"
 xmlns:xodm="http://www.corel.com/coreldraw/odm/2003">
 <defs>
  <style type="text/css">
   <![CDATA[
    .fil1 {fill:#FEFEFE}
    .fil0 {fill:url(#id0)}
   ]]>
  </style>
  <linearGradient id="id0" gradientUnits="userSpaceOnUse" x1="51.26" y1="102.41" x2="51.26" y2="0">
   <stop offset="0" style="stop-opacity:1; stop-color:#6F57FE"/>
   <stop offset="1" style="stop-opacity:1; stop-color:#238DFF"/>
  </linearGradient>
 </defs>
 <g id="Camada_x0020_1">
  <metadata id="CorelCorpID_0Corel-Layer"/>
  <g id="_2312475216400">
   <rect class="fil0" width="102.52" height="102.41" rx="17.74" ry="17.74"/>
   <path class="fil1" d="M14.75 35.44c0.14,0 0.26,0.02 0.39,0.04 1.5,0.18 2.44,1.39 2.12,2.86 -0.32,1.47 -1.78,2.67 -3.36,2.86l-5.24 0c-1.5,-0.18 -2.44,-1.38 -2.12,-2.86 0.32,-1.47 1.77,-2.67 3.36,-2.86 0.14,-0.02 0.27,-0.04 0.41,-0.04l4.44 0zm64.68 30.43c-3.98,0 -7.91,3.22 -8.8,7.2 -0.88,3.97 1.63,7.2 5.6,7.2 3.98,0 7.91,-3.22 8.79,-7.2 0.88,-3.98 -1.63,-7.2 -5.6,-7.2zm-45.9 0c-3.97,0 -7.91,3.22 -8.8,7.2 -0.88,3.97 1.63,7.2 5.6,7.2 3.97,0 7.91,-3.22 8.79,-7.2 0.88,-3.98 -1.63,-7.2 -5.6,-7.2zm57.15 -0.52l2.66 -0.89 3.64 -16.44 -2.17 -16.42 -0.02 -0.08 -15.95 -9.36 -2.28 7.57 9.04 1.57 -9.3 -0.74 -5.54 -0.32 -7.33 33.07 -2.06 0 8.73 -39.37 -10.39 0 -6.15 0 -44.04 0c-0.87,0 -1.72,0.33 -2.4,0.85 -0.68,0.53 -1.19,1.25 -1.36,2.05 -0.32,1.47 0.62,2.67 2.11,2.85l34.01 0c1.73,0 2.86,1.3 2.51,2.89 -0.32,1.47 -1.77,2.67 -3.35,2.86l-17.34 0c-0.14,0 -0.27,0.02 -0.41,0.03 -1.58,0.18 -3.03,1.38 -3.35,2.86 -0.32,1.47 0.61,2.67 2.11,2.86l22.47 0c1.73,0 2.85,1.3 2.51,2.89 -0.32,1.47 -1.77,2.67 -3.35,2.85l-29.31 0c-0.13,0 -0.27,0.02 -0.41,0.04 -1.58,0.18 -3.04,1.38 -3.36,2.85 -0.32,1.47 0.62,2.67 2.12,2.86l19.11 0c1.73,0 2.86,1.3 2.51,2.89 -0.33,1.53 -1.9,2.78 -3.55,2.88l-0.2 -0.02 -21.28 0 -0.2 0.02c-1.66,0.09 -3.23,1.34 -3.56,2.88 -0.35,1.6 0.78,2.89 2.51,2.89l21.27 0 0.05 -0.01 -10.71 0 -1.14 0.77 -1.48 6.66 6.72 -0.01 0.03 -0.07c1.73,-4.55 6.44,-8.03 11.18,-8.03 4.75,0 7.92,3.48 7.63,8.03l-0.01 0.07 27.09 0 0.03 -0.07c1.73,-4.55 6.43,-8.03 11.18,-8.03 4.75,0 7.91,3.48 7.62,8.03l-0.01 0.07 4.19 0 0.02 -0.07 1.02 0 1.18 -5.33 -0.82 -0.89 -2.47 0z"/>
  </g>
 </g>
</svg>
