<?xml version="1.0" encoding="UTF-8"?>
<!DOCTYPE svg PUBLIC "-//W3C//DTD SVG 1.1//EN" "http://www.w3.org/Graphics/SVG/1.1/DTD/svg11.dtd">
<!-- Creator: CorelDRAW 2020 (64 Bit) -->
<svg xmlns="http://www.w3.org/2000/svg" xml:space="preserve" width="32.9407mm" height="7.5406mm" version="1.1" style="shape-rendering:geometricPrecision; text-rendering:geometricPrecision; image-rendering:optimizeQuality; fill-rule:evenodd; clip-rule:evenodd"
viewBox="0 0 1679.75 384.52"
 xmlns:xlink="http://www.w3.org/1999/xlink"
 xmlns:xodm="http://www.corel.com/coreldraw/odm/2003">
 <defs>
  <style type="text/css">
   <![CDATA[
    .fil3 {fill:none}
    .fil2 {fill:#0E337B}
    .fil0 {fill:#0E337B;fill-rule:nonzero}
    .fil1 {fill:#0E337B;fill-rule:nonzero}
   ]]>
  </style>
 </defs>
 <g id="Camada_x0020_1">
  <metadata id="CorelCorpID_0Corel-Layer"/>
  <g id="_2312479282064">
   <g>
    <polygon class="fil0" points="254.95,213.7 204.29,213.7 204.29,76 77.64,76 77.64,26.77 380.87,26.77 380.87,76 254.95,76 "/>
    <path id="1" class="fil0" d="M485.4 26.77l98.46 127.36 98.11 -127.36 73.13 0 0 186.94 -50.66 0 0 -136.63 -104.88 136.63 -31.75 0 -105.6 -138.06 -49.94 0 0 -48.88 73.13 0zm-73.13 69.92l50.66 0 0 117.01 -50.66 0 0 -117.01z"/>
    <path id="2" class="fil0" d="M1039.07 143.42l-199.42 0c-6.89,0 -13.55,-1.01 -19.98,-3.03 -6.42,-2.02 -12.07,-4.93 -16.95,-8.74 -4.87,-3.8 -8.8,-8.26 -11.77,-13.38 -2.97,-5.11 -4.46,-10.76 -4.46,-16.95l0 -26.4c0,-7.37 1.61,-14.09 4.82,-20.16 3.21,-6.06 7.49,-11.12 12.84,-15.16 5.35,-4.04 11.48,-7.2 18.37,-9.45 6.9,-2.26 14.15,-3.39 21.76,-3.39l245.44 0 0 48.88 -252.57 0 0 21.4 199.42 0c6.9,0 13.56,1.01 19.98,3.03 6.42,2.02 12.07,4.94 16.95,8.74 4.87,3.8 8.8,8.27 11.77,13.38 2.97,5.11 4.46,10.76 4.46,16.95l0 26.4c0,7.61 -1.6,14.39 -4.81,20.33 -3.21,5.95 -7.49,10.94 -12.85,14.98 -5.35,4.04 -11.53,7.2 -18.55,9.45 -7.02,2.26 -14.21,3.39 -21.59,3.39l-245.44 0 0 -48.87 252.57 0 0 -21.41z"/>
    <g>
     <polygon class="fil1" points="94.64,357.02 111.35,357.02 111.35,321.26 137.94,321.26 137.94,307.81 111.35,307.81 111.35,286.11 146.05,286.11 146.05,272.41 94.64,272.41 "/>
     <path id="1" class="fil1" d="M379.53 357.02l17.65 0 -29.94 -84.74 -19.44 0 -29.94 84.74 17.54 0 5.48 -16.12 33.16 0 5.49 16.12zm-36.51 -101.59l0 12.13 27.44 -12.73 0 -13.82 -27.44 14.43zm26.49 71.89l-24.09 0 12.04 -35.4 12.05 35.4z"/>
     <path id="2" class="fil1" d="M569.46 314.59c0,25.34 18.25,43.16 42.23,43.16 18.49,0 33.52,-9.94 39.12,-27.4l-19.2 0c-3.94,8.25 -11.09,12.24 -20.04,12.24 -14.55,0 -24.93,-10.91 -24.93,-28.01 0,-17.21 10.38,-28 24.93,-28 8.95,0 16.1,4 20.04,12.12l19.2 0c-5.6,-17.33 -20.63,-27.4 -39.12,-27.4 -23.98,0 -42.23,17.94 -42.23,43.28z"/>
     <polygon id="3" class="fil1" points="830.25,357.02 846.95,357.02 846.95,272.41 830.25,272.41 "/>
     <polygon id="4" class="fil1" points="1028.53,272.41 1028.53,357.02 1072.67,357.02 1072.67,343.57 1045.24,343.57 1045.24,272.41 "/>
     <circle class="fil2" cx="238.65" cy="317.71" r="7.29"/>
     <circle class="fil2" cx="486.61" cy="317.71" r="7.29"/>
     <circle class="fil2" cx="737.5" cy="317.71" r="7.29"/>
     <circle class="fil2" cx="946.08" cy="317.71" r="7.29"/>
    </g>
   </g>
   <rect class="fil3" x="-0" width="1679.75" height="384.52"/>
  </g>
 </g>
</svg>
