<?xml version="1.0" encoding="UTF-8"?>
<!DOCTYPE svg PUBLIC "-//W3C//DTD SVG 1.1//EN" "http://www.w3.org/Graphics/SVG/1.1/DTD/svg11.dtd">
<!-- Creator: CorelDRAW 2020 (64 Bit) -->
<svg xmlns="http://www.w3.org/2000/svg" xml:space="preserve" width="44.1749mm" height="9.4377mm" version="1.1" style="shape-rendering:geometricPrecision; text-rendering:geometricPrecision; image-rendering:optimizeQuality; fill-rule:evenodd; clip-rule:evenodd"
viewBox="0 0 2241.3 478.84"
 xmlns:xlink="http://www.w3.org/1999/xlink"
 xmlns:xodm="http://www.corel.com/coreldraw/odm/2003">
 <defs>
  <style type="text/css">
   <![CDATA[
    .fil5 {fill:none}
    .fil1 {fill:#FEFEFE}
    .fil4 {fill:#0E337B}
    .fil2 {fill:#0E337B;fill-rule:nonzero}
    .fil3 {fill:#0E337B;fill-rule:nonzero}
    .fil0 {fill:url(#id0)}
   ]]>
  </style>
  <linearGradient id="id0" gradientUnits="userSpaceOnUse" x1="239.68" y1="478.84" x2="239.68" y2="0">
   <stop offset="0" style="stop-opacity:1; stop-color:#6F57FE"/>
   <stop offset="1" style="stop-opacity:1; stop-color:#238DFF"/>
  </linearGradient>
 </defs>
 <g id="Camada_x0020_1">
  <metadata id="CorelCorpID_0Corel-Layer"/>
  <g id="_2312959931712">
   <rect class="fil0" width="479.36" height="478.84" rx="82.96" ry="82.96"/>
   <path class="fil1" d="M68.99 165.69c0.64,0 1.23,0.1 1.83,0.17 7.02,0.86 11.39,6.48 9.9,13.35 -1.49,6.88 -8.3,12.5 -15.69,13.35l-24.52 0c-7.02,-0.85 -11.39,-6.47 -9.9,-13.35 1.49,-6.87 8.3,-12.5 15.69,-13.35 0.63,-0.07 1.27,-0.17 1.91,-0.17l20.77 0zm302.43 142.28c-18.59,0 -37,15.07 -41.12,33.66 -4.12,18.58 7.61,33.66 26.2,33.66 18.59,0 37,-15.07 41.12,-33.66 4.12,-18.6 -7.61,-33.66 -26.2,-33.66zm-214.59 0c-18.58,0 -37,15.07 -41.12,33.66 -4.12,18.58 7.62,33.66 26.21,33.66 18.58,0 37,-15.07 41.12,-33.66 4.12,-18.6 -7.61,-33.66 -26.2,-33.66zm267.21 -2.44l12.46 -4.17 17.04 -76.88 -10.14 -76.78 -0.09 -0.38 -74.55 -43.76 -10.65 35.39 42.29 7.36 -43.47 -3.45 -25.92 -1.48 -34.29 154.63 -9.63 0 40.81 -184.07 -48.58 0 -28.74 0 -205.89 0c-4.05,0 -8.04,1.52 -11.23,3.95 -3.17,2.47 -5.56,5.84 -6.36,9.57 -1.49,6.86 2.88,12.48 9.88,13.33l159.03 0c8.1,0 13.36,6.06 11.74,13.53 -1.5,6.89 -8.29,12.5 -15.68,13.36l-81.06 0c-0.66,0 -1.28,0.11 -1.92,0.16 -7.39,0.86 -14.18,6.47 -15.67,13.36 -1.49,6.88 2.87,12.5 9.88,13.36l105.06 0c8.09,0 13.34,6.06 11.73,13.53 -1.48,6.85 -8.28,12.48 -15.66,13.33l-137.05 0c-0.63,0 -1.28,0.11 -1.9,0.2 -7.38,0.86 -14.21,6.47 -15.69,13.33 -1.49,6.88 2.9,12.5 9.91,13.36l89.33 0c8.1,0 13.35,6.06 11.74,13.53 -1.55,7.17 -8.87,13 -16.62,13.45l-0.94 -0.08 -99.47 0 -0.95 0.08c-7.74,0.44 -15.09,6.25 -16.65,13.45 -1.62,7.47 3.64,13.53 11.74,13.53l99.47 0 0.25 -0.03 -50.07 0 -5.32 3.58 -6.91 31.14 31.41 -0.03 0.13 -0.33c8.08,-21.25 30.12,-37.54 52.29,-37.54 22.22,0 37.03,16.28 35.68,37.54l-0.05 0.33 126.67 0 0.13 -0.33c8.07,-21.25 30.08,-37.54 52.29,-37.54 22.22,0 36.99,16.28 35.64,37.54l-0.04 0.33 19.6 0 0.09 -0.33 4.75 0 5.51 -24.91 -3.83 -4.16 -11.53 0z"/>
  </g>
  <g id="_2312959938144">
   <g>
    <polygon class="fil2" points="823.65,260.76 773.25,260.76 773.25,123.75 647.24,123.75 647.24,74.76 948.95,74.76 948.95,123.75 823.65,123.75 "/>
    <path id="1" class="fil2" d="M1052.95 74.76l97.96 126.72 97.61 -126.72 72.77 0 0 186 -50.4 0 0 -135.94 -104.36 135.94 -31.59 0 -105.07 -137.37 -49.69 0 0 -48.63 72.77 0zm-72.77 69.57l50.4 0 0 116.43 -50.4 0 0 -116.43z"/>
    <path id="2" class="fil2" d="M1603.83 190.83l-198.42 0c-6.86,0 -13.49,-1 -19.88,-3.02 -6.39,-2.01 -12.01,-4.91 -16.86,-8.7 -4.85,-3.78 -8.75,-8.22 -11.71,-13.31 -2.96,-5.09 -4.44,-10.71 -4.44,-16.86l0 -26.27c0,-7.34 1.6,-14.02 4.79,-20.06 3.19,-6.03 7.45,-11.06 12.78,-15.08 5.33,-4.02 11.42,-7.16 18.28,-9.41 6.86,-2.25 14.08,-3.37 21.65,-3.37l244.2 0 0 48.63 -251.3 0 0 21.29 198.42 0c6.86,0 13.49,1.01 19.88,3.02 6.39,2.01 12.01,4.91 16.86,8.7 4.85,3.78 8.76,8.22 11.72,13.31 2.96,5.08 4.43,10.71 4.43,16.86l0 26.27c0,7.57 -1.59,14.31 -4.79,20.23 -3.2,5.92 -7.45,10.89 -12.78,14.91 -5.32,4.02 -11.48,7.16 -18.45,9.41 -6.98,2.25 -14.14,3.37 -21.48,3.37l-244.21 0 0 -48.63 251.3 0 0 -21.3z"/>
    <g>
     <polygon class="fil3" points="664.16,403.36 680.78,403.36 680.78,367.78 707.24,367.78 707.24,354.39 680.78,354.39 680.78,332.8 715.31,332.8 715.31,319.17 664.16,319.17 "/>
     <path id="1" class="fil3" d="M947.61 403.36l17.56 0 -29.79 -84.31 -19.35 0 -29.79 84.31 17.45 0 5.45 -16.04 32.99 0 5.46 16.04zm-36.32 -101.08l0 12.07 27.3 -12.67 0 -13.75 -27.3 14.35zm26.35 71.53l-23.97 0 11.98 -35.22 11.99 35.22z"/>
     <path id="2" class="fil3" d="M1136.59 361.14c0,25.21 18.16,42.94 42.02,42.94 18.4,0 33.35,-9.89 38.93,-27.26l-19.11 0c-3.92,8.2 -11.04,12.18 -19.94,12.18 -14.48,0 -24.81,-10.86 -24.81,-27.86 0,-17.12 10.33,-27.86 24.81,-27.86 8.9,0 16.02,3.98 19.94,12.06l19.11 0c-5.58,-17.25 -20.53,-27.26 -38.93,-27.26 -23.86,0 -42.02,17.85 -42.02,43.06z"/>
     <polygon id="3" class="fil3" points="1396.07,403.36 1412.68,403.36 1412.68,319.17 1396.07,319.17 "/>
     <polygon id="4" class="fil3" points="1593.35,319.17 1593.35,403.36 1637.26,403.36 1637.26,389.97 1609.97,389.97 1609.97,319.17 "/>
     <circle class="fil4" cx="807.43" cy="364.24" r="7.26"/>
     <circle class="fil4" cx="1054.16" cy="364.24" r="7.26"/>
     <circle class="fil4" cx="1303.78" cy="364.24" r="7.26"/>
     <circle class="fil4" cx="1511.31" cy="364.24" r="7.26"/>
    </g>
   </g>
   <rect class="fil5" x="569.99" y="48.13" width="1671.31" height="382.59"/>
  </g>
 </g>
</svg>
